<?xml version="1.0" encoding="utf-8"?>
<!-- Generator: Adobe Illustrator 19.0.0, SVG Export Plug-In . SVG Version: 6.00 Build 0)  -->
<svg version="1.1" id="Layer_1" xmlns="http://www.w3.org/2000/svg" xmlns:xlink="http://www.w3.org/1999/xlink" x="0px" y="0px"
	 viewBox="0 0 512 512" style="enable-background:new 0 0 512 512;" xml:space="preserve">
<g id="XMLID_5_">
	<path id="XMLID_9_" d="M366.2,321.6h-23l-8-8c29.1-33.1,46.1-76.1,46.1-123.2C381.2,85.2,296.1,0,190.9,0S0.5,85.2,0.5,190.4
		s85.2,190.4,190.4,190.4c47.1,0,90.2-17,123.2-46.1l8,8v23L468.4,512l43.1-43.1L366.2,321.6z M190.9,321.6
		c-73.1,0-131.3-59.1-131.3-131.3S118.7,59.1,190.9,59.1s131.3,59.1,131.3,131.3S264,321.6,190.9,321.6z"/>
</g>
</svg>
