<?xml version="1.0"?>
<svg xmlns:rdf="http://www.w3.org/1999/02/22-rdf-syntax-ns#" xmlns="http://www.w3.org/2000/svg" xmlns:cc="http://web.resource.org/cc/" xmlns:dc="http://purl.org/dc/elements/1.1/" xmlns:svg="http://www.w3.org/2000/svg" viewBox="0 0 468 468" version="1.0">
  <g transform="translate(0 468) scale(.078 -.078)">
    <path d="m2480 5893c-14-3-30-9-37-15-7-5-16-7-21-4s-28-15-52-39l-44-45 13-187c7-104 15-243 18-310 3-68 10-123 14-123 5 0 9-22 9-49v-50l-43-6c-32-5-59-20-107-61-35-30-68-54-73-54-23 0-258-231-274-270-8-19-28-50-44-69-16-20-29-41-29-48s-5-13-11-13c-5 0-7-4-4-10 3-5 1-10-4-10-6 0-11-10-11-22 0-13-7-32-15-42-8-11-15-29-15-40 0-12-7-30-15-40-8-11-15-36-15-55 0-75-13-141-26-141-20 0-19-129 1-144 9-7 16-39 21-91 3-44 12-93 20-109s14-41 14-56c0-16 7-30 15-34 9-3 15-18 15-34s6-35 14-41 19-31 25-54c6-24 20-52 31-62s20-26 20-36 8-24 18-31c18-14 37-40 51-75 6-11 26-33 45-48 21-16 36-37 38-53 2-18 12-31 31-40 15-7 27-17 27-21 0-5 8-12 18-15 26-9 56-29 76-49 32-32 83-67 97-67 8-1 30-14 49-30 19-17 44-30 55-30s32-8 45-17c14-10 33-16 43-15 9 2 17-1 17-7s15-13 34-16c42-8 44-15 52-218 3-83 9-161 14-172 7-17 31-826 30-1016v-57l-36 8c-19 5-43 15-53 24s-26 16-37 16-29 7-40 15c-10 8-28 15-39 15s-31 9-45 20-29 20-33 20c-10 0-67 59-67 69 0 3 38 44 85 91 70 70 85 90 85 115 0 17 5 36 10 41 6 6 13 40 17 77 3 37 9 67 12 67 8 0 5 99-3 107-3 4-6 16-6 27-1 13-42 62-108 128-84 84-114 108-135 108-15 0-27 5-27 11 0 5-4 8-9 5s-11 0-14 8c-3 7-35 21-72 31-36 10-68 22-71 27-3 4-25 8-49 8s-47 5-50 10c-4 6-58 10-130 10-113 0-124-2-130-19-3-11-17-26-30-35-14-9-25-22-25-29 0-8-11-24-25-37s-25-28-25-34c0-5-10-20-22-34-22-22-23-32-26-233-4-182-2-212 12-234 9-14 14-29 12-34-3-5 1-14 9-21s15-23 15-37c0-40 257-315 324-347 19-9 39-23 43-30 11-20 109-86 127-86 8 0 19-6 23-12 11-18 49-38 71-38 10 0 36-13 58-30 21-16 46-30 55-30s19-7 23-15c3-8 14-15 24-15s27-7 38-15c10-8 26-15 35-15s19-6 22-14 24-17 46-21c24-4 45-14 51-25 5-10 20-20 32-24 13-3 42-22 65-43l41-38 11-435 11-434 41-42 41-41 115-8c115-7 116-6 141 19 23 22 26 33 26 103 1 102-13 283-24 308-5 11-14 127-20 258-11 218-11 240 5 257 9 10 24 16 36 13 10-3 25-1 32 5 6 5 39 12 72 14l60 3 3-150c1-82 6-159 11-170s12-143 15-293c4-185 10-278 18-291 17-28 52-41 107-41 30 0 53-6 60-14 8-9 43-17 97-21 83-7 86-7 113 19 20 19 30 41 35 73 7 56-11 430-23 458-5 11-14 117-21 235-6 118-14 234-17 257l-6 42 63 13c34 7 65 18 67 25 3 7 10 13 16 13 5 0 24 10 41 23 17 12 44 28 59 35 15 6 52 30 82 52s61 40 70 40c23 0 119 98 143 146 11 22 28 46 36 53 9 8 16 17 16 22 0 4 18 27 41 51 22 24 47 59 56 78 8 19 21 42 28 50 17 19 45 98 45 127 0 12 5 25 10 28 6 3 10 19 10 35s5 32 10 35c6 4 10 57 10 126 0 73-4 119-10 119-5 0-10 20-10 45s-4 45-9 45c-4 0-14 34-20 74-7 42-21 85-31 99-10 13-22 37-26 53-8 32-61 131-75 139-4 3-6 12-3 19s-2 19-11 26c-8 7-15 19-15 26 0 8-9 19-20 26s-20 17-20 22-11 24-25 42-25 37-25 42c0 6-6 12-14 15s-16 14-18 25c-10 57-538 585-568 567-4-3-17 5-27 18s-26 26-36 30c-9 4-19 12-21 19s-9 105-16 218c-6 113-15 214-20 225s-10 138-12 282c-4 243-3 261 12 248 9-8 26-15 38-15 19 0 44-18 109-82 12-12 24-32 28-46 3-13 37-61 75-107 39-45 70-86 70-91s16-22 35-38 35-38 35-49 14-36 31-56c16-20 42-51 57-68 15-18 35-42 45-53 9-11 17-25 17-30 0-15 23-54 38-63 6-4 12-14 12-20 0-7 16-28 36-47 31-29 45-35 93-38 47-3 59-1 75 17 11 12 29 21 40 21 13 0 57 36 119 99 53 55 97 103 97 108 1 13 37 53 48 53 14 0 22 26 22 72 0 32-8 50-35 84-19 23-35 47-35 53 0 16-146 202-207 266-18 19-33 38-33 42 0 10-73 83-82 83-4 0-18 11-32 25s-34 25-45 25-28 11-39 25-26 25-34 25c-7 0-19 9-26 20s-17 20-23 20-35 20-63 45c-29 25-61 45-70 45s-16 5-16 10c0 6-7 10-16 10-15 0-77 32-131 67-27 18-119 52-141 53-8 0-32 16-55 35-22 19-46 35-52 35-9 0-14 83-19 302l-7 303-38 45c-27 32-47 46-69 48-17 2-36 10-42 18-8 8-31 14-59 14-40 0-52-5-80-34-31-32-33-38-33-109 0-42 2-80 5-84 3-5 9-107 13-226l7-217h-84c-46 0-108-3-136-6l-53-7v126c0 69-4 128-8 131-5 3-12 98-15 213l-7 207-37 38c-36 37-38 38-108 37-38-1-81-4-95-6zm516-1178c16-8 36-15 45-15 13 0 17-56 27-467 11-440 10-469-6-481-20-16-179-9-196 8-6 6-18 10-27 10-24 0-27 28-35 325-3 143-10 265-14 270-4 6-10 85-14 178l-6 167h79c44 0 83 5 86 10 9 14 28 12 61-5zm-576-100c4-5 10-62 14-125 17-313 30-476 37-484 13-15-11-36-40-36-14 0-43 11-63 25s-41 25-45 25c-21 0-67 50-79 85-24 69-18 308 11 442 5 22 95 94 130 104 13 3 21 0 24-10 2-9 7-20 11-26zm597-1757c27-7 50-15 53-19 3-3 13-8 23-12 9-4 21-17 26-29 5-13 12-203 16-423s11-404 15-410c4-5 9-116 11-245l4-235-102-3c-66-2-103 1-103 8 0 5-6 10-14 10-10 0-16 18-20 63-9 88-26 484-26 594 0 50-4 93-9 95-13 5-31 590-19 606 13 15 84 16 145 0zm598-258c21-22 44-40 50-40 19 0 132-125 143-159 7-19 12-58 12-87s5-56 10-59c6-3 10-22 10-41s5-34 10-34c6 0 10-62 10-166v-166l-27-34c-16-19-40-49-55-66-16-17-28-38-28-47s-13-33-30-52c-24-30-38-37-80-43-27-4-50-11-50-16 0-6-8-10-19-10-22 0-27 35-37 241-4 74-10 139-14 144-4 6-10 62-14 125-18 325-29 476-37 485-14 15-10 45 6 45 8 0 15 5 15 10 0 6 19 10 43 10 37 0 48-6 82-40z"/>
  </g>
  <metadata>
    <rdf:RDF>
      <cc:Work>
        <dc:format>image/svg+xml</dc:format>
        <dc:type rdf:resource="http://purl.org/dc/dcmitype/StillImage"/>
        <cc:license rdf:resource="http://creativecommons.org/licenses/publicdomain/"/>
        <dc:publisher>
          <cc:Agent rdf:about="http://openclipart.org/">
            <dc:title>Openclipart</dc:title>
          </cc:Agent>
        </dc:publisher>
        <dc:title>Money 12</dc:title>
        <dc:date>2012-02-06T15:16:53</dc:date>
        <dc:description>A Dollar Sign</dc:description>
        <dc:source>http://openclipart.org/detail/167787/money-12-by-dripsandcastle</dc:source>
        <dc:creator>
          <cc:Agent>
            <dc:title>dripsandcastle</dc:title>
          </cc:Agent>
        </dc:creator>
        <dc:subject>
          <rdf:Bag>
            <rdf:li>clip art</rdf:li>
            <rdf:li>clipart</rdf:li>
            <rdf:li>dollar</rdf:li>
            <rdf:li>dollar sign</rdf:li>
            <rdf:li>money</rdf:li>
          </rdf:Bag>
        </dc:subject>
      </cc:Work>
      <cc:License rdf:about="http://creativecommons.org/licenses/publicdomain/">
        <cc:permits rdf:resource="http://creativecommons.org/ns#Reproduction"/>
        <cc:permits rdf:resource="http://creativecommons.org/ns#Distribution"/>
        <cc:permits rdf:resource="http://creativecommons.org/ns#DerivativeWorks"/>
      </cc:License>
    </rdf:RDF>
  </metadata>
</svg>
