<?xml version="1.0" encoding="utf-8"?>
<svg version="1.1" id="Layer_1" xmlns="http://www.w3.org/2000/svg" xmlns:xlink="http://www.w3.org/1999/xlink" x="0px" y="0px"
	 viewBox="0 0 889.4 1627.284" enable-background="new 0 0 889.4 1627.284" xml:space="preserve">
<g>
	<g>
		<path d="M364.563,1613.194c-99.751-0.831-136.639,4.742-225.48-118.238c-3.102-4.3-7.312-8.818-9.103-14.316
			c-10.095-30.992-58.28-104.552-84.247-171.63c-4.102-10.599-6.923-22.053-11.725-31.968c-6.042-12.474-9.464-26.938-13.921-39.774
			c-2.274-6.553-5.491-14.477-4.952-21.831c0.503-6.858,8.028-14.046,11.775-18.808c53.166-67.563,128.592-80.418,182.721-132.655
			c10.724-10.348,11.812-26.408,12.863-41.938c1.172-17.345,2.208-22.246-0.108-61.495c-2.67-45.288-0.682-35.031-8.08-47.215
			c-42.364-69.758-26.728-124.016-33.265-150.413c-0.833-3.366-1.44-5.333-0.589-7.934c-6.786-0.084-13.578-1.875-19.487-5.185
			c-19.576-10.961-26.205-34.65-31.006-51.055c-2.194-7.498-4.073-15.372-1.283-22.382
			c-36.949-54.062-51.537-119.941-40.025-180.955c0.814-4.317,2.273-9.773,6.365-13.685c2.98-2.849,3.116-3.649,2.803-8.612
			c-1.604-25.482-29.354-82.889-4.692-169.526c13.405-47.082,16.745-95.444,48.806-132.668
			c35.792-41.554,82.592-69.861,120.158-95.039c20.653-13.843,52.342-36.201,105.82-50.836c51.207-14.019,95.5-13.713,143.024-6.371
			c20.19,3.121,12.929,4.474,27.885,4.748c95.333,1.749,187.961,46.66,248.063,126.874c37.279,49.748,89.533,120.746,87.382,205.349
			c-0.887,34.846-10.452,64.551-22.545,116.121c-2.457,10.476-4.994,21.295-7.863,32.711
			c45.403,45.796,12.404,129.968-25.144,182.074c-18.18,25.217-19.005,32.375-19.882,46.592
			c-1.01,16.333-2.648,21.307-15.386,36.039c-12.806,14.819-16.309,21.056-16.168,52.624c0.016,3.392,0.031,6.898-0.052,10.314
			c-1.108,45.688-22.51,90.54-57.298,120.173c-3.476,27.524-4.135,54.722-7.694,82.416l-8.598,66.884
			c-6.511,50.634,28.297,29.17,122.511,99.759c6.957,5.212,20.818,12.723,24.428,20.96c0.747,1.704,1.036,3.567,1.318,5.405
			c5.167,33.634,11.962,73.886,8.067,133.872c-4.227,65.026-17.364,104.735-29.939,143.982
			c-5.256,16.406-7.122,18.458-15.072,25.825c-14.932,13.853-54.508,67.204-134.502,74.37
			C568.549,1614.883,464.784,1614.02,364.563,1613.194z M188.724,749.746c-7.432,12.083-2.572,3.411-1.169,26.07
			c1.201,19.35-5.587,64.142,22.583,120.311c14.873,29.66,14.79,13.735,16.403,53.121c0.848,20.696,3.056,42.945,1.147,65.902
			c-1.537,18.439-0.995,38.865-14.808,52.194c-43.533,42.009-104.749,61.202-150.61,99.535
			c-19.637,16.413-30.523,31.375-34.389,35.882c-12.676,14.77-9.174,13.641,0.797,45.956c10.097,32.713,7.746,17.856,17.127,46.288
			c21.369,64.756,78.122,151.836,88.314,183.229c1.307,4.029,2.666,6.014,6.455,10.929c3.674,4.764,11.106,15.562,24.893,32.521
			c63.117,77.652,93.287,86.025,172.124,86.611c109.495,0.829,222.07,2.683,332.437-7.2c33.351-2.988,66.321-15.895,92.836-36.342
			c13.11-10.111,24.767-22.087,34.444-32.469c3.896-4.181,9.595-8.388,12.186-12.844c3.548-6.105,5.553-14.191,7.979-21.092
			c49.271-140.091,20.874-257.411,19.565-270.433c-0.111-1.1-0.363-3.597-0.687-4.431c-88.133-75.088-136.019-68.55-146.604-98.438
			c-3.602-10.174-2.083-13.736,7.843-90.943c3.62-28.169,4.141-54.895,7.925-84.222c36.164-30.457,55.98-74.571,57.03-117.883
			c0.424-17.355-1.772-36.352,7.027-52.135c6.484-11.634,18.07-19.669,22.202-31.402c2.876-8.165,1.865-17.413,3.477-26.51
			c2.983-16.829,14.342-30.456,23.869-44.029c34.431-49.061,64.025-128.973,19.541-171.988c6.461-25.56,10.585-45.065,16.683-69.219
			c13.845-54.824,27.938-107.556-11.63-189.642c-16.399-34.021-38.011-63.867-60.575-93.979
			c-55.841-74.526-144.812-123.173-244.403-125c-5.028-0.092-9.372-0.171-14.623-1.898c-5.509-1.813-11.854-2.534-17.744-3.515
			c-65.918-10.99-135.571-1.673-199.23,30.969c-19.489,9.994-37.476,23.014-55.635,34.88
			C105.829,183.717,125.04,208.577,97.63,304.861c-12.439,43.696-13.191,90.089-2.174,134.163
			c2.727,10.914,6.302,22.138,7.035,33.787c0.913,14.525-6.2,7.329-9.24,23.458c-11.028,58.443,1.895,123.334,40.798,179.635
			c-3.473,7.092-2.142,12.828,0.402,21.518c2.715,9.278,5.523,18.872,10.006,27.512c8.357,16.104,21.968,26.816,39.622,25.227
			L188.724,749.746z M836.561,1223.664h0.01H836.561z M836.294,1223.359L836.294,1223.359L836.294,1223.359z"/>
	</g>
	<g>
		<path d="M153.94,680.874c0.739-0.243,1.531,0.157,1.774,0.893c1.387,4.202,10.257,1.656,10.582-1.023
			c0.46-3.786-17.61-11.331-33.461-3.037c-1.645,0.863-2.946-1.628-1.302-2.488c10.087-5.279,22.699-5.431,32.913-0.397
			c6.47,3.191,6.106,8.805-0.225,11.109C154.905,689.32,151.174,681.786,153.94,680.874z"/>
	</g>
	<g>
		<path d="M88.76,518.535l8.396-28.235c7.131,5.506,12.377,11.648,15.106,21.059c0.517,1.783-2.18,2.564-2.697,0.782
			c-1.907-6.574-5.745-12.558-10.903-17.052l-7.21,24.246C90.923,521.113,88.23,520.315,88.76,518.535z"/>
	</g>
	<g>
		<path d="M123.46,548.069c-3.702-5.542-5.97-12.171-6.468-18.836c-6.508,1.352-13.454,0.944-19.743-1.178
			c-1.765-0.596-0.856-3.254,0.898-2.661c7.664,2.587,14.316,2.146,21.513,0.296c0.215,7.375,1.57,13.984,6.136,20.82
			C126.826,548.052,124.491,549.615,123.46,548.069z"/>
	</g>
	<g>
		<path d="M114.947,583.794c4.34-3.027,9.741-6.794,11.882-12.206c1.442-3.645,1.264-7.917-0.475-11.429
			c-0.823-1.663,1.691-2.911,2.517-1.246c2.086,4.212,2.299,9.337,0.57,13.708c-2.453,6.199-8.238,10.234-12.887,13.477
			C115.032,587.159,113.423,584.858,114.947,583.794z"/>
	</g>
	<g>
		<path d="M119.246,633.82c-0.178-22.673-0.581-23.91,1.183-26.685c0.975-1.532,2.774-2.571,4.53-2.63
			c-1.756-8.089-0.446-16.284,4.676-24.573c9.571,5.222,16.472,12.323,20.617,22.11c0.724,1.711-1.863,2.803-2.586,1.095
			c-3.434-8.109-9.45-14.963-17.023-19.43c-6.462,11.704-2.559,21.776-0.907,27.156l-3.714-3.246
			c-0.874-0.763-2.566-0.01-3.223,1.023c-1.215,1.91-0.922,2.623-0.744,25.156C122.07,635.655,119.26,635.676,119.246,633.82z"/>
	</g>
	<g>
		<path d="M139.76,633.827c-2.882-16.064,11.361-30.1,10.03-45.193c-0.163-1.846,2.635-2.101,2.798-0.246
			c1.415,16.038-12.758,29.929-10.063,44.943C142.853,635.16,140.089,635.652,139.76,633.827z"/>
	</g>
	<g>
		<path d="M184.228,686.148c-10.301-34.562-1.42-68.248-30.919-97.048c-16.442-16.046-20.154-28.59-25.249-59.207
			c-3.167-19.025-7.01-37.16-19.086-49.947c-1.274-1.349,0.767-3.279,2.042-1.928c12.62,13.361,16.574,31.944,19.814,51.413
			c4.929,29.615,8.375,41.977,24.441,57.659c30.306,29.588,21.555,64.387,31.649,98.255
			C187.449,687.123,184.758,687.929,184.228,686.148z"/>
	</g>
	<g>
		<path d="M164.628,671.252c-0.033-3.267-4.039-5.061-6.777-6.181c-4.105-1.68-9.014-3.526-10.814-13.893
			c-0.316-1.825,2.448-2.315,2.767-0.48c1.535,8.85,5.251,10.195,9.11,11.774c3.97,1.625,8.474,4.064,8.522,8.752
			C167.455,673.08,164.647,673.108,164.628,671.252z"/>
	</g>
	<g>
		<path d="M297.783,800.925c10.463-7.449,13.161-3.019,30.508-22.523c18.052-20.295,38.513-43.298,47.606-70.877
			c0.581-1.765,3.248-0.882,2.667,0.879c-9.275,28.132-29.941,51.366-48.174,71.865c-10.269,11.547-13.679,14.014-22.855,18.449
			c-2.817,1.361-16.66,7.203-14.937,17.271c0.131,0.764-0.383,1.49-1.147,1.62C288.35,818.172,288.215,807.737,297.783,800.925z"/>
	</g>
	<g>
		<g>
			<path d="M551.139,688.254c13.3,32.752,9.544,36.005,12.307,45.648c2.377,8.297,14.496,19.031,21.818,23.424
				c13.075,7.368,36.025,10.665,40.001,29.518c0.156,1.212,0.66,2.989-0.999,3.203c-0.697,0.09-1.375-0.3-1.576-1.222
				c-3.754-16.984-24.563-19.124-38.572-26.277c-6.781-3.506-13.645-9.78-18.776-15.609c-7.296-8.336-7.351-13.148-8.401-23.809
				c-1.386-12.247-5.378-23.927-9.02-35.321c-0.236-0.739,0.172-1.531,0.91-1.767C550.3,685.58,550.693,687.176,551.139,688.254z"/>
		</g>
	</g>
	<g>
		<path d="M667.797,908.35c13.069-44.094-1.288-92.047-36.548-121.696c-1.421-1.195,0.387-3.344,1.807-2.15
			c35.803,30.106,50.929,79.104,37.434,124.645C669.963,910.926,667.27,910.132,667.797,908.35z"/>
	</g>
	<g>
		<g>
			<path d="M395.419,949.071c51.969-2.641,59.856-21.374,85.562-21.033c18.266,1.044,28.208,9.884,44.726,14.657
				c-0.03-0.002,0.12,0.021-0.057-0.003c8.04,1.872,14.135,2.134,21.781-1.393c0.931-0.43,1.702-0.047,2.016,0.634
				c0.382,0.829-0.025,1.299-0.528,1.895c-6.233,7.031-14.948,9.078-24.298,8.798c-15.826-0.45-30.966-10.913-46.808-10.65
				c0.289-0.011,0.054-0.001,0.106-0.003c-14.46,1.08-23.134,9.11-46.4,12.207c-13.692,1.741-26.352,0.792-36.433-1.757
				c-1.309-0.338-3.217-0.527-2.788-2.187C392.627,948.981,393.862,949.157,395.419,949.071z"/>
		</g>
	</g>
	<g>
		<g>
			<path d="M358.824,871.216c-1.148,4.455-5.81,7.038-10.229,8.239c-4.603,1.193-7.275,0.441-8.818,0.18
				c-3.192-5.75,1.437-11.732,7.842-12.946c7.464-1.086,12.6,3,24.406,3.821c17.526,1.655,37.638-4.09,57.04-7.507
				c32.829-5.656,41.41,0.675,54.322,1.942c13.927,1.43,19.925-6.246,43.534-3.449c12.056,1.447,21.702,4.152,38.02,3.207
				c15.622-0.9,28.503-6.01,33.457-2.455c2.428,1.768,3.738,4.778,5.095,6.531c5.546,7.285,5.927,7.543,6.23,9.199
				c0.055,0.358,0.062,0.492,0.057,0.449c0.066,2.132-1.046,3.643-2.531,4.239c-1.653,0.696-3.014-0.06-4.014-0.594
				c-12.48-6.656-19.519-9.279-20.707-15.419c4.739,1.628,4.99,1.995,22.076,9.941c2.425,1.127,1.556,0.741,1.425,0.725
				c-0.125-0.018-0.347-0.01-0.2-0.014c-0.988,0.031-1.813,0.67-1.758,1.665c-0.023-0.221-0.019-0.118,0.007,0.071
				c0.03,0.199,0.062,0.193-0.068,0.033c-0.89-1.056,0.118,0.131-5.407-6.357c-1.182-1.411-2.765-3.855-3.575-4.629
				c-0.137-0.143-0.256-0.225-0.256-0.225l0.017,0.005c-0.229-0.148-0.081-0.052-0.308-0.197c0.103,0.066,0.188,0.132,0.283,0.173
				c0.031,0.027,0.056,0.028,0.005,0.028c-1.555-0.039-2.709,0.399-5.114,0.648c-7.865,0.849-21.321,6.298-44.279,4.483
				c-9.912-0.783-19.159-2.91-28.684-2.831c-7.35,0.07-11.569,1.535-18.274,2.947c-16.696,3.573-22.914-0.726-35.374-2.629
				c-29.787-5.15-62.41,11.617-96.676,4.588c-10.118-2.548-13.608-5.253-18.842-4.737c-0.123,0.012-0.28,0.031-0.165,0.013
				c-3.914,0.741-7.336,4.264-5.926,7.841l-1.046-0.564c0.659-0.32,1.731-0.769,2.298-0.984c10.319-4.068,11.305-4.836,14.654-5.284
				C357.809,871.278,358.297,871.222,358.824,871.216z"/>
		</g>
	</g>
	<g>
		<path d="M771.285,764.256c0.389-21.701,4.584-42.957,12.469-63.178c5.014-12.851,19.582-40.502-0.006-55.762
			c31.226-55.168,35.151-120.221,14.682-175.639c-0.645-1.747,1.994-2.71,2.635-0.973c21.091,57.102,15.958,122.767-13.698,175.912
			c8.264,7.181,9.952,19.183,8.713,28.244c-2.875,21.033-21.095,41.634-21.987,91.446
			C774.06,766.162,771.252,766.114,771.285,764.256z"/>
	</g>
	<g>
		<path d="M810.485,556.93c11.778-19.429,16.007-43.355,11.603-65.643c-0.361-1.83,2.399-2.357,2.756-0.544
			c4.537,22.968,0.179,47.623-11.958,67.644C811.925,559.973,809.521,558.52,810.485,556.93z"/>
	</g>
	<g>
		<path d="M828.826,585.445c3.448-7.399,3.576-7.135,3.167-9.895c-0.551-3.721,0.119-5.202,3.538-8.365
			c3.168-2.929,2.968-3.644,2.169-5.785c-0.464-1.245-1.607-3.981,0.855-6.592c1.936-2.052,5.461-2.488,5.398-0.304
			c-0.023,0.776-0.672,1.392-1.446,1.362c-0.677-0.018-1.368,0.297-1.909,0.87c-1.195,1.266-0.741,2.406-0.266,3.683
			c1.488,3.994,0.401,5.779-2.895,8.827c-5.983,5.537-0.099,4.58-3.798,12.518l-2.268,4.867
			C830.588,588.316,828.041,587.127,828.826,585.445z"/>
	</g>
	<g>
		<path d="M427.721,776.226c-7.505-7.591-9.858-8.379-19.708-8.225c-11.196,0.188-15.469-1.226-21.723-11.919
			c-3.999-6.838-8.326-15.039-10.091-24.015c-5.095-25.892,11.471-27.821,17.871-49.379l0,0c1.969-6.635,2.736-13.735,3.477-20.602
			c2.256-20.887,4.165-25.673,12.994-40.588c8.312-14.044,9.08-17.734,10.505-25.338c2.349-12.531,4.399-16.008,15.719-23.44
			c6.425-4.22,14.421-9.472,23.35-9.771c8.711-0.29,17.998,4.423,24.825,12.616c7.648,9.176,8.723,13.702,39.076,87.206
			c4.004,9.696,7.408,19.174,5.412,28.388c5.588-0.16,10.597,3.268,13.573,6.831c3.704,4.436,5.701,10.069,7.463,15.038
			c6.231,17.579,9.113,23.696,7.259,30.877c-2.635,10.211-13.956,14.255-21.505,20.746c-3.418,2.936-8.493,2.634-11.552-0.691
			c-3.257-3.539-3.508-4.397-6.349-2.834c-7.604,4.179-12.532,11.983-19.205,18.121
			C480.476,796.388,449.886,798.627,427.721,776.226z M432.262,776.766c18.366,17.33,46.827,17.08,64.947,0.414
			c6.501-5.98,11.663-14.069,19.754-18.515c4.816-2.645,6.53-0.124,9.767,3.394c2.03,2.205,5.391,2.41,7.655,0.463
			c7.68-6.602,18.304-10.357,20.617-19.318c1.643-6.368-1.259-12.512-7.187-29.236c-1.765-4.979-3.59-10.127-6.972-14.176
			c-3.562-4.264-8.669-6.478-13.023-5.639l-2.294,0.443c2.644-8.616,2.729-14.193-4.108-30.752
			c-30.273-73.31-31.334-77.717-38.637-86.48c-6.278-7.532-14.757-11.876-22.573-11.607c-8.14,0.273-15.771,5.285-21.903,9.312
			c-10.695,7.022-12.302,9.88-14.5,21.61c-1.526,8.134-2.437,12.038-10.849,26.251c-8.638,14.593-10.41,19.006-12.618,39.459
			c-0.755,6.991-1.536,14.22-3.578,21.099l0,0c-6.557,22.091-22.586,23.751-17.807,48.037c1.685,8.566,5.879,16.504,9.76,23.14
			c5.661,9.679,8.952,10.696,19.253,10.528C421.918,764.962,422.81,767.848,432.262,776.766z M395.415,683.088h0.01H395.415z"/>
	</g>
	<g>
		<path d="M487.698,787.762c-1.857-0.085-1.72-2.883,0.129-2.805c13.11,0.6,17.297-1.479,28.748-11.125
			c3.958-3.334,8.051-6.782,12.771-9.111c1.661-0.823,2.91,1.696,1.242,2.518c-10.406,5.136-17.93,16.419-29.755,19.606
			C496.538,788.004,492.056,787.963,487.698,787.762z"/>
	</g>
	<g>
		<path d="M421.562,782.519c-6.748-0.621-17.381-8.776-22.883-14.394c-1.298-1.326,0.708-3.294,2.007-1.965
			c5.197,5.308,15.37,13.032,21.133,13.563c1.74,0.161,2.962-0.069,11.19-1.1c1.836-0.236,2.197,2.555,0.35,2.787
			C425.07,782.448,423.673,782.713,421.562,782.519z"/>
	</g>
	<g>
		<path d="M237.177,561.941c-8.357,9.257-34.684,16.917-45.504,19.64c-0.749,0.194-1.515-0.267-1.705-1.019
			c-0.746-2.961,4.81-0.954,29.831-11.145c16.179-6.59,16.73-10.82,22.823-22.301l-2.243,10.11
			c-2.005,9.039,3.554,17.782,9.953,22.436c18.752,13.634,72.373,12.903,109.947-19.918c4.476-3.911,8.711-8.229,13.234-12.202
			c1.401-1.228,3.245,0.887,1.854,2.11c-4.462,3.919-8.696,8.237-13.24,12.207C316.024,602.132,238.828,598.915,237.177,561.941z"/>
	</g>
	<g>
		<path d="M224.621,557.695c-10.128-0.716-20.088-2.875-29.601-6.419c-1.739-0.648-0.76-3.283,0.981-2.632
			c9.261,3.449,18.957,5.552,28.818,6.249c6.523,0.458,7.484-1.278,9.15-5.053c2.748-6.216,6.499-8.629,13.436-12.26
			c4.431-2.316,6.52-2.64,12.699,0.507c37.404,19.049,69.286,8.275,113.057-1.662c5.327-1.211,6.776-2.211,9.124-11.199
			c3.777,0.285,8.622,0.585,12.004,3.672c3.264,2.981,3.87,8.947,0.103,11.497c-1.538,1.042-3.111-1.285-1.575-2.325
			c2.147-1.455,1.561-5.286-0.423-7.098c-2.018-1.842-4.974-2.462-7.996-2.758c-2.368,8.51-5.579,9.806-10.615,10.95
			c-43.736,9.929-76.59,20.961-114.954,1.426c-5.365-2.731-6.543-2.392-10.123-0.521c-7.173,3.754-9.939,5.85-12.168,10.906
			C234.325,555.99,232.224,558.233,224.621,557.695z"/>
	</g>
	<g>
		<path d="M252.757,545.087c-0.664-2.38,2.94-3.398,3.607-1.007c1.797,6.437,9.334,9.65,15.341,11.211
			c14.559,3.787,25.496,2.569,34.228,1.674c21.423-2.195,43.527-4.459,63.929-12.123c2.31-0.872,3.641,2.633,1.316,3.506
			c-26.391,9.913-70.698,13.059-76.266,13.246C282.02,562.025,256.77,559.471,252.757,545.087z"/>
	</g>
	<g>
		<path d="M207.045,541.305c-1.03-0.091-1.792-1-1.701-2.03c0.221-2.497,3.087-1.816,9.697-0.325
			c7.75,1.748,16.273,3.853,21.107-8.102c1.497-3.708,2.229-7.734,3.482-11.761c1.853-5.948,6.136-15.075,11.188-18.619
			c2.33-1.635,4.97-2.391,6.965-3.775c7.445-5.163,3.336-11.512,29.185-16.503c12.696-2.449,12.539-5.013,25.921-4.444
			c64.343,2.706,47.472,16.762,57.478,23.694c2.391,1.657,5.042,1.552,16.736,2.322c2.492,0.163,2.201,3.924-0.246,3.736
			c-11.893-0.784-15.232-0.631-18.623-2.981c-11.816-8.188,7.091-20.396-55.502-23.031c-12.885-0.54-11.497,1.763-25.053,4.38
			c-24.772,4.785-19.069,9.877-27.761,15.903c-2.333,1.619-4.965,2.372-6.948,3.764c-4.199,2.946-8.143,11.466-9.763,16.667
			c-2.06,6.611-3.453,18.059-12.299,22.349C223.18,546.293,214.686,541.98,207.045,541.305z"/>
	</g>
	<g>
		<path d="M359.292,505.064c-0.563-3.001-4.363-4.585-7.446-5.03c-7.24-1.043-9.722,0.032-15.717-4.977
			c-5.363-4.465-11.24-8.024-18.425-10.551c-5.508-1.937-7.469-1.492-11.779-0.387c-2.783,0.714-5.658,1.452-8.676,0.801
			c-1.712,0.076-4.149,0.099-5.938-1.665c-1.761-1.737,0.865-4.405,2.63-2.666c0.793,0.783,2.455,0.621,3.658,0.566
			c4.355,1.054,8.388-1.601,13.442-1.729c7.035-0.177,19.129,5.839,26.978,12.331c5.715,4.758,6.101,3.375,14.362,4.57
			c10.036,1.449,12.622,9.569,9.096,10.231C360.466,506.749,359.484,506.084,359.292,505.064z"/>
	</g>
	<g>
		<path d="M251.615,538.449c-2.99-1.801,2.301-5.027,4.067-12.535c0.409-1.732,0.582-3.701,1.418-5.61
			c2.45-5.595,8.908-7.426,13.641-9.697c10.517-5.04,24.68-21.5,72.821-6.5c4.521,1.418,8.908,2.882,13.277,3.254
			c2.458,0.21,2.159,3.933-0.318,3.731c-12.714-1.085-45.722-18.447-73.612-3.223c-3.474,1.897-6.801,4.317-10.548,6.114
			c-4.722,2.264-10.047,3.749-11.83,7.822c-1.638,3.743,0.434,4.752-6.345,16.005C253.651,538.697,252.501,538.983,251.615,538.449z
			"/>
	</g>
	<g>
		<path d="M359.723,538.574c2.769-4.831,0.25-11.184-3.526-14.708c-5.391-5.034-9.591-5.668-52.044-18.995
			c-1.77-0.555-0.932-3.234,0.841-2.68c42.574,13.365,47.159,14.058,53.119,19.622c4.565,4.261,7.535,12.073,4.046,18.158
			C361.236,541.582,358.799,540.184,359.723,538.574z"/>
	</g>
	<g>
		<path d="M412.59,493.495c13.511-41.535,13.029-38.579,13.413-46.685c0.735-15.553,5.426-12.23,3.278-29.146
			c-2.06-16.155-0.114-30.89-6.983-42.981c-0.918-1.616,1.527-3,2.442-1.388c7.269,12.796,5.269,27.77,7.327,44.015
			c2.245,17.669-2.547,14.554-3.258,29.633c-0.403,8.496-0.008,5.797-13.548,47.421C414.687,496.128,412.015,495.261,412.59,493.495
			z"/>
	</g>
	<g>
		<path d="M491.099,491.629c-11.259-26.675-15.934-55.585-20.458-83.542c-0.745-4.611-1.516-9.378-1.23-14.203
			c0.455-7.637,3.526-14.843,3.119-22.1c-0.102-1.852,2.699-2.014,2.804-0.157c0.433,7.733-2.685,15.097-3.119,22.424
			c-0.269,4.516,0.477,9.127,1.199,13.588c4.496,27.794,9.145,56.535,20.273,82.898C494.408,492.247,491.824,493.34,491.099,491.629
			z"/>
	</g>
	<g>
		<path d="M403.079,502.54c7.413-8.66,18.281-12.441,26.093-14.087c22.75-4.796,46.222,1.478,66.927,7.011
			c1.798,0.481,1.064,3.192-0.724,2.714c-20.403-5.453-43.532-11.632-65.624-6.977c-7.386,1.557-17.639,5.105-24.539,13.166
			C404.006,505.776,401.871,503.951,403.079,502.54z"/>
	</g>
	<g>
		<path d="M492.079,542.242c-2.24,0-0.873-1.591-1.87-15.73c-0.789-11.21-4.275-13.185-12.587-13.697
			c-11.485-0.708-45.073-0.397-51.399,1.987c-1.98,0.746-6.676,2.804-7.529,5.784l-2.08,7.271
			c-0.706-7.951-0.651-9.601-1.917-12.797c-3.553-1.885-7.116-3.875-10.597-5.916c-1.601-0.939-0.182-3.363,1.421-2.423
			c4.015,2.355,7.615,4.339,11.379,6.327c0.426,1,0.816,1.931,1.201,3.378c5.547-5.57,14.474-5.729,17.556-5.883
			c13.797-0.686,28.063-1.397,42.139-0.53c14.175,0.873,15.815,7.398,15.687,30.834
			C493.479,541.618,492.851,542.242,492.079,542.242z"/>
	</g>
	<g>
		<g>
			<path d="M329.579,466.417c-3.629,0.233-6.156-0.798-10.046-1.838c-13.22-3.301-55.75,10.196-92.715,8.839
				c11.812-9.56,49.662-22.351,75.233-19.914C323.113,455.324,321.325,461.017,329.579,466.417z"/>
		</g>
	</g>
	<g>
		<g>
			<path d="M525.532,455.097c42.296-20.746,59.827-23.297,87.206-25.608c29.686-2.472,47.902,3.843,75.203,19.22
				c8.302,4.74,9.233,7.08,13.096,12.385c6.14,8.191,18.308,13.233,23.186,31.689c-10.137-15.811-20.251-16.94-29.619-25.511
				c0.452,0.519-4-4.228-5.157-5.142c-1.908-1.554-37.32-19.681-65.857-19.4C566.771,443.604,565.741,449.551,525.532,455.097z"/>
		</g>
	</g>
	<g>
		<g>
			<path d="M538.917,522.105c-0.211-3.902-0.248-7.12,1.107-12.698c2.887-11.469,12.284-27.01,14.763-29.829
				c2.402-2.763,5.177-3.811,8.383-5.055c18.151-7.365,27.905-17.171,48.753-13.577c8.187,1.419,29.331,6.369,38.817,9.738
				c11.656,4.133,17.72,9.356,22.756,16.581c13.746,20.279,9.575,37.828,46.315,45.615c10.428,2.327,19.399,0.131,21.975-3.13
				c2.158-2.652,4.305-12.068,4.555-16.526c0.131-2.371,3.74-2.382,3.74,0.199c-0.026,4.991-1.716,15.132-4.699,19.172
				c-3.972,5.375-15.054,7.761-26.625,5.723c-6.674-1.184-15.947-4.336-21.139-6.772c-18.895-9.027-20.415-28.395-31.655-42.625
				c-7.278-8.854-17.145-12.284-42.798-18.079c-14.273-3.105-17.421-3.862-23.994-3.14c-10.68,1.31-20.632,8.078-33.013,12.74
				c-3.649,1.313-5.097,1.717-6.685,3.377c-1.429,1.515-11.535,16.105-14.969,26.835c-1.078,3.905-1.68,5.938-1.838,11.409
				C542.596,524.447,539.05,524.476,538.917,522.105z"/>
		</g>
	</g>
	<g>
		<path d="M539.455,522.318c1.391-2.306,2.498-4.927,3.567-7.46c4.97-11.774,7.668-14.494,19.229-19.449
			c7.1-3.043,8.454-3.976,13.365-8.3c23.414-20.63,40.531-14.263,49.084-20.095c2.038-1.395,4.161,1.696,2.109,3.094
			c-10.07,6.868-25.848-0.362-48.718,19.811c-5.212,4.59-6.908,5.736-14.365,8.931c-10.602,4.545-12.642,6.539-17.254,17.463
			c-1.121,2.656-2.28,5.402-3.809,7.939C541.381,526.373,538.179,524.436,539.455,522.318z"/>
	</g>
	<g>
		<path d="M573.39,537.712c-4.263-1.592-9.073-3.631-12.194-7.696c-1.509-1.965,1.467-4.244,2.97-2.281
			c2.517,3.279,6.758,5.058,10.534,6.468c29.314,10.946,45.295,6.768,56.257,4.154c16.645-3.964,25.336-5.557,32.818-10.683
			c3.313-2.267,6.517-5.355,10.244-7.354c-4.195-2.77-5.96-7.309-8.669-10.679c-6.376-7.923-18.697-10.37-32.419-13.167
			c-16.328-3.327-30.987-5.796-45.028-2.274c-7.991,2.001-8.863,4.589-13.966,10.479c-7.019,8.099-17.13,13.608-27.742,15.115
			c-2.447,0.353-2.98-3.359-0.526-3.708c9.73-1.382,19.002-6.434,25.438-13.86c5.012-5.782,6.565-9.325,15.885-11.658
			c14.808-3.714,29.905-1.184,46.687,2.237c14.164,2.887,27.34,5.482,34.589,14.488c3.234,4.022,6.192,11.581,11.962,11.063
			c2.43-0.223,2.818,3.437,0.389,3.724c-4.022,0.469-6.782,2.566-10.803,5.732c-5.978,4.703-9.714,7.452-26.955,11.559
			c-14.206,3.383-17.7,4.287-22.308,4.971C604.536,546.723,588.503,543.355,573.39,537.712z"/>
	</g>
	<g>
		<path d="M566.374,373.361c-29.432-6.226-36.165-5.453-54.267-2.38c-42.17,7.158-29.088-5.312-76.94-2.099
			c-66.23,4.45-85.518,6.839-109.719,4.761c-1.837-0.157-1.625-2.942,0.241-2.799c23.641,2.031,41.666-0.221,109.29-4.765
			c48.569-3.259,34.979,9.207,76.658,2.133c18.725-3.179,25.719-3.861,55.319,2.401c13.966,2.954,28.409,6.009,42.547,4.033
			c1.836-0.254,2.229,2.524,0.39,2.782C595.275,379.469,580.616,376.373,566.374,373.361z"/>
	</g>
	<g>
		<path d="M641.332,354.196c-1.593-4.563-6.691-6.955-11.963-8.858c-33.994-12.274-70.115-19.175-105.048-25.848
			c-26.384-5.04-32.929-5.33-58.152-3.296c-39.204,3.16-70.212-2.882-122.268,15.749c-1.746,0.626-2.696-2.019-0.946-2.645
			c32.551-11.649,59.808-14.593,90.847-14.623c48.594-0.046,44.739-6.79,91.048,2.056c35.039,6.694,71.272,13.615,105.475,25.965
			c5.924,2.14,11.68,4.902,13.661,10.574c0.255,0.732-0.131,1.533-0.864,1.789C642.393,355.313,641.589,354.932,641.332,354.196z"/>
	</g>
	<g>
		<path d="M162.621,467.65c-5.893-10.644-9.371-22.551-12.253-33.832c-10.851-42.498-5.229-56.637,6.676-82.157
			c2.092-4.485,4.695-10.066,9.369-13.488c1.497-1.098,3.158,1.169,1.659,2.266c-4.093,2.996-6.425,7.997-8.483,12.409
			c-11.72,25.125-17.14,38.608-6.499,80.275c2.835,11.1,6.249,22.8,11.988,33.166c0.376,0.679,0.13,1.533-0.548,1.909
			C163.849,468.574,162.997,468.33,162.621,467.65z"/>
	</g>
	<g>
		<path d="M152.095,464.628c-12.487-11.77-27.418-26.76-22.955-47.338c0.392-1.812,3.138-1.221,2.745,0.595
			c-4.029,18.566,9.06,32.375,22.136,44.7C155.376,463.863,153.442,465.898,152.095,464.628z"/>
	</g>
	<g>
		<path d="M127.33,470.594c1.401-4.169-4.733-7.712-6.927-9.538c-8.916-7.426-11.238-18.854-17.524-40.269
			c-0.524-1.787,2.174-2.567,2.695-0.791c6.21,21.157,8.459,32.1,16.626,38.902c2.178,1.813,9.916,6.274,7.792,12.591
			C129.402,473.247,126.738,472.354,127.33,470.594z"/>
	</g>
	<g>
		<path d="M110.773,408.703c-5.462-18.098-2.807-38.515,7.1-54.617c0.974-1.58,3.366-0.11,2.393,1.472
			c-9.493,15.429-12.037,34.993-6.804,52.334c0.224,0.742-0.196,1.526-0.939,1.75C111.787,409.865,110.998,409.45,110.773,408.703z"
			/>
	</g>
	<g>
		<path d="M104.099,333.785c-0.243-7.761,11.356-11.71,16.542-10.2c4.499,1.308,3.749,4.099,7.218,1.268
			c4.75-3.875,6.399-13.031,10.866-18.376c3.597-4.304,8.239-7.397,12.728-10.387c1.03-0.685,1.768,0.165,2.721,0.955
			c1.307,1.086-0.126,3.544-2.034,1.963c-4.047,2.704-8.147,5.546-11.26,9.271c-4.178,4.999-5.782,14.294-11.245,18.752
			c-5.135,4.19-6.496,0.207-9.778-0.748c-3.702-1.077-13.118,2.015-12.949,7.416c0.024,0.775-0.585,1.423-1.36,1.448
			C104.778,335.17,104.123,334.567,104.099,333.785z"/>
	</g>
	<g>
		<path d="M118.869,327.345c1.355-1.267,3.275,0.784,1.917,2.053c-5.259,4.911-10.254,13.562-6.539,18.337
			c0.476,0.612,0.366,1.495-0.246,1.971C110.975,352.058,105.256,340.061,118.869,327.345z"/>
	</g>
	<g>
		<path d="M99.211,287.474c32.476-56.925,23.376-84.27,45.692-96.604c1.624-0.901,2.983,1.56,1.358,2.458
			c-20.699,11.441-12.39,39.059-44.611,95.538C100.731,290.479,98.291,289.086,99.211,287.474z"/>
	</g>
	<g>
		<path d="M95.953,319.596c1.885-26.459,16.49-39.954,22.585-49.091c6.805-10.201,10.541-22.16,14.154-33.724
			c0.554-1.775,3.234-0.933,2.681,0.837c-3.673,11.754-7.47,23.909-14.498,34.445c-6.242,9.357-20.3,22.203-22.12,47.732
			C98.623,321.646,95.821,321.45,95.953,319.596z"/>
	</g>
	<g>
		<path d="M121.746,314.266c18.913-38.566,18.553-36.689,20.135-45.878c2.069-12.033,5.78-21.07,10.997-33.455
			c0.719-1.71,3.309-0.623,2.588,1.091c-16.078,38.165-6.64,29.395-16.614,49.741l-14.584,29.738
			C123.45,317.168,120.929,315.933,121.746,314.266z"/>
	</g>
	<g>
		<path d="M99.222,326.705c6.356-9.821,0.363-23.39,13.266-37.864c7.247-8.129,9.74-6.508,17.614-25.008
			c0.726-1.707,3.312-0.61,2.584,1.099c-8.113,19.066-11.076,17.895-18.102,25.777c-12.265,13.759-6.083,26.826-13.004,37.521
			C100.573,329.789,98.213,328.265,99.222,326.705z"/>
	</g>
	<g>
		<path d="M184.02,244.295c-8.566-1.261-16.623-7.187-21.553-15.853c-6.37-11.197-8.291-30.334-4.705-38.403
			c0.754-1.696,3.322-0.558,2.567,1.14c-4.328,9.741-0.722,46.684,24.1,50.336C186.265,241.787,185.858,244.567,184.02,244.295z"/>
	</g>
	<g>
		<path d="M174.682,225.463c-10.835-3.267-11.265-11.159-9.385-29.631c0.078-0.771,0.762-1.342,1.539-1.255
			c2.146,0.218,0.782,1.794,0.497,13.609c-0.234,9.73,2.154,12.777,8.16,14.587c9.545,2.873,20.358,1.542,28.921-3.56
			c1.593-0.951,3.034,1.462,1.437,2.413C196.676,227.092,185.03,228.577,174.682,225.463z"/>
	</g>
	<g>
		<path d="M196.782,216.315c-7.38,0-15.609-2.863-19.235-9.491c-1.554-2.839-1.873-4.893-5.218-18.781
			c-0.434-1.804,2.296-2.465,2.73-0.658c3.347,13.899,3.627,15.671,4.951,18.091c3.229,5.902,10.782,8.018,16.775,8.031
			c0.776,0.001,1.403,0.631,1.401,1.407C198.184,215.688,197.556,216.315,196.782,216.315z"/>
	</g>
	<g>
		<path d="M207.383,217.582c-12.795-6.015-14.501-6.598-16.709-8.814c-3.599-3.611-7.373-12.986-4.48-22.808
			c0.523-1.776,3.22-0.992,2.694,0.794c-2.569,8.72,0.812,17.059,3.776,20.032c1.794,1.801,3.279,2.314,15.914,8.255
			C210.257,215.831,209.064,218.374,207.383,217.582z"/>
	</g>
	<g>
		<path d="M608.873,583.546c-1.748-1.764,0.923-4.392,2.658-2.637c1.688,1.701,4.88,1.252,7.163-0.067
			c1.439-0.831,2.732-1.939,4.101-3.112c6.812-5.842,10.588-6.442,20.154-6.456c4.54-0.01,6.779-0.796,12.151-3.065
			c40.461-17.086,61.664,0.767,85.729-2.963c2.459-0.372,3.01,3.324,0.573,3.701c-25.178,3.89-45.48-13.908-84.844,2.711
			c-5.57,2.353-8.347,3.351-13.603,3.36c-9.738,0.016-12.233,0.851-17.723,5.555c-1.438,1.233-2.925,2.507-4.665,3.512
			C616.961,586.168,611.926,586.626,608.873,583.546z"/>
	</g>
	<g>
		<path d="M652.7,577.646c-2.475-0.004-2.47-3.745,0.003-3.745c20.687,0,38.47,18.042,57.791,15.222
			c3.973-0.579,7.978-2.07,12.31-2.321c2.43-0.18,2.722,3.593,0.216,3.738c-3.909,0.227-7.799,1.679-11.987,2.289
			C690.352,595.841,672.353,577.676,652.7,577.646z"/>
	</g>
	<g>
		<path d="M226.362,237.931c-7.177-0.901-12.643-6.189-17.482-11.769c-1.621-1.868,1.206-4.326,2.829-2.453
			c14.481,16.698,24.743,12.878,38.031-5.042c14.94-20.145,15.984-10.141,24.614-30.995l10.146-24.527
			c0.948-2.291,4.406-0.854,3.461,1.431l-10.146,24.527c-8.994,21.734-10.665,12.374-25.066,31.794
			C249.018,225.928,239.647,239.598,226.362,237.931z"/>
	</g>
	<g>
		<path d="M199.085,172.836c-2.095-1.323-0.092-4.487,1.999-3.167c0.327,0.207,12.747,8.16,13.132,8.119
			c0.514-1.001,12.641-15.16,24.994-27.094c1.778-1.719,4.384,0.972,2.602,2.693c-8.566,8.275-16.754,17.131-24.336,26.32
			C214.226,183.644,212.344,181.209,199.085,172.836z"/>
	</g>
	<g>
		<path d="M341.657,193.839c-12.122-1.692-27.293-6.985-35.874-14.518c-11.252-9.875-17.72-29.583-19.392-44.459
			c-0.276-2.458,3.444-2.881,3.722-0.419c1.563,13.907,7.672,32.875,18.141,42.063c7.908,6.942,22.338,12.006,33.922,13.623
			C344.622,190.473,344.114,194.179,341.657,193.839z"/>
	</g>
	<g>
		<path d="M355.996,188.909c-1.979-1.485,0.268-4.483,2.248-2.994c11.508,8.641,28.427,5.43,38.882,3.609
			c18.322-3.19,22.802-2.548,32.236-0.742c24.245,4.636,31.915-2.088,42.869-2.601c11.031-0.508,21.247,5.726,31.363,4.547
			c2.445-0.297,2.903,3.433,0.432,3.72c-11.046,1.283-21.365-5.007-31.621-4.526c-10.194,0.477-18.714,7.326-43.747,2.538
			c-16.518-3.158-22.299-0.223-39.607,2.166C377.626,196.202,365.25,195.859,355.996,188.909z"/>
	</g>
	<g>
		<path d="M391.869,183.293c-7.626-2.634-12.643-9.687-16.746-16.092c-2.68-4.183-5.734-9.078-8.054-14.243
			c-9.594-21.349-6.148-47.917,8.575-66.111c6.091-7.525,8.142-7.743,17.574-20.87c6.105-8.499,12.418-17.287,22.659-20.1
			c2.383-0.658,3.382,2.955,0.992,3.611c-8.964,2.463-14.621,10.337-20.61,18.674c-9.591,13.354-11.751,13.686-17.704,21.041
			c-13.856,17.123-17.1,42.128-8.07,62.221c2.216,4.932,5.184,9.687,7.791,13.757c3.936,6.145,8.323,12.331,14.815,14.573
			c0.978,0.337,1.496,1.404,1.159,2.381C393.911,183.116,392.842,183.63,391.869,183.293z"/>
	</g>
	<g>
		<path d="M440.6,191.041c-11.757-4.272-25.669-3.855-36.928-10.651c-9.483-5.722-38.266-34.956-28.529-60.594
			c0.879-2.313,4.38-0.987,3.501,1.329c-8.905,23.454,18.802,51.133,26.964,56.058c13.527,8.166,39.472,7.012,37.392,12.737
			C442.647,190.888,441.576,191.395,440.6,191.041z"/>
	</g>
	<g>
		<g>
			<path d="M454.295,21.915c8.468,2.154,15.33,4.236,24.188,7.748c3.275,1.348,5.401,2.748,7.251,6.803
				c1.791,3.885,3.887,9.871,4.006,14.571c0.077,3.322-0.656,5.638-1.846,8.005c0.069-0.107-0.148,0.252-0.141,0.238
				c-6.535,10.247-16.421,6.814-27.212,16.855c-11.159,10.743-19.602,36.291-21.041,42.469c-5.7,24.163,18.722,48,42.775,59.313
				c18.599,8.795,39.84,14.222,46.133,16.734c1.286,0.512,2.431,1.077,2.996,1.405c2.032,1.179,0.455,4.279-1.69,3.339
				c-11.183-4.857-52.177-8.691-79.182-34.496c-11.386-10.831-17.611-24.024-19.152-33.956c-0.769-4.901-0.383-9.361,0.755-14.087
				c1.642-6.866,10.447-33.527,23.557-45.837c3.062-2.8,6.141-5.043,10.88-6.996c11.098-4.392,22.78-4.067,14.148-25.372
				c-1.065-2.689-0.485-4.156-27.454-13.135C450.987,24.78,451.964,21.327,454.295,21.915z"/>
		</g>
	</g>
	<g>
		<path d="M355.403,182.579c-17.617-8.971-20.347-13.422-25.257-24.737c-3.406-7.847-5.971-11.964-7.803-17.673
			c-3.406-10.613-2.419-23.268,2.708-34.718c5.586-12.479,14.539-21.627,24.997-30.03c10.003-8.039,11.547-10.421,15.215-17.97
			c3.772-7.76,8.153-14.357,15.41-20.607c1.406-1.211,3.24,0.917,1.833,2.128c-6.896,5.94-11.064,12.192-14.717,19.707
			c-3.655,7.522-5.342,10.38-15.982,18.931c-10.094,8.107-18.799,16.938-24.193,28.988c-4.848,10.827-5.794,22.75-2.597,32.712
			c1.115,3.473,2.759,6.859,4.348,10.134c7.853,16.176,6.191,19.876,27.313,30.632C358.33,180.919,357.059,183.423,355.403,182.579z
			"/>
	</g>
	<g>
		<path d="M265.183,112.268c1.717-17.563,15.497-24.246,22.326-28.084c17.239-9.712,33.769-20.963,49.131-33.441
			c1.44-1.17,3.213,1.008,1.77,2.18c-15.484,12.576-32.145,23.918-49.522,33.707c-6.621,3.72-19.335,9.795-20.909,25.91
			C267.798,114.387,265.003,114.118,265.183,112.268z"/>
	</g>
	<g>
		<path d="M278.553,127.515c8.876-33.867,18.303-34.176,35.412-41.183c10.737-4.396,20.521-11.086,29.983-17.556
			c6.433-4.398,12.973-9.829,12.711-16.764c-0.07-1.851,2.736-1.967,2.806-0.106c0.314,8.3-6.866,14.357-13.932,19.188
			c-9.583,6.552-19.492,13.328-30.504,17.836c-16.776,6.87-25.221,6.718-33.76,39.296
			C280.799,130.022,278.082,129.312,278.553,127.515z"/>
	</g>
	<g>
		<path d="M306.856,159.628c-12.421-22.536-13.452-21.932-11.026-30.891c3.383-12.481,7.563-25.209,18.048-31.708
			c1.577-0.98,3.058,1.408,1.48,2.387c-9.624,5.966-13.447,17.621-16.817,30.056c-2.087,7.705-1.65,6.257,10.775,28.801
			C310.211,159.897,307.752,161.255,306.856,159.628z"/>
	</g>
	<g>
		<path d="M229.811,206.46c-2.38-1.261,1.326-3.69,8.38-19.905c7.121-16.372,12.867-41.94,36.799-75.459
			c1.077-1.51,3.366,0.119,2.285,1.632c-23.686,33.176-29.33,58.441-36.509,74.947c-2.717,6.246-5.94,12.325-9.057,18.203
			C231.343,206.568,230.489,206.822,229.811,206.46z"/>
	</g>
	<g>
		<path d="M211.401,210.442c10.406-7.423,18.06-18.284,21.554-30.582c0.507-1.783,3.21-1.021,2.702,0.767
			c-3.668,12.909-11.703,24.309-22.625,32.101C211.518,213.807,209.891,211.519,211.401,210.442z"/>
	</g>
	<g>
		<path d="M205.137,155.265c1.8-5.251,5.778-9.218,10.044-13.151c14.84-13.686,30.701-26.563,47.14-38.275
			c1.512-1.077,3.142,1.21,1.63,2.287c-16.344,11.644-32.112,24.447-46.866,38.052c-3.99,3.68-7.703,7.367-9.291,11.998
			C207.191,157.932,204.534,157.022,205.137,155.265z"/>
	</g>
	<g>
		<path d="M211.209,128.722c-1.683-0.049-1.351-1.879-1.31-3.312c0.044-1.483,9.807-9.418,21.573-12.978
			c1.775-0.537,2.592,2.15,0.813,2.689c-7.206,2.18-13.968,5.968-19.596,10.972C212.661,127.093,212.825,128.78,211.209,128.722z"/>
	</g>
	<g>
		<path d="M372.157,180.668c-11.75-12.526-33.223-39.475-36.696-52.305c-2.984-11.018,1.192-22.61,5.672-32.496
			c0.765-1.691,3.326-0.534,2.558,1.159c-4.273,9.432-8.27,20.444-5.519,30.603c3.429,12.668,25.646,40.043,36.034,51.118
			C375.475,180.1,373.427,182.023,372.157,180.668z"/>
	</g>
	<g>
		<path d="M445.614,189.555c-5.569-9.798-12.674-15.111-21.297-19.675c-11.271-5.966-18.752-11.039-27.58-40.226
			c-2.447-8.089-4.977-16.454-4.79-25.199c0.32-14.936,9.495-29.496,22.83-36.23c16.591-8.38,40.751-6.14,29.485-18.536
			c-7.704-8.479-18.625-14.292-29.962-15.948c-1.836-0.268-1.432-3.048,0.406-2.779c12.146,1.774,23.38,7.753,31.634,16.838
			c5.566,6.123,4.911,11.904-3.654,14.705c-8.917,2.911-18.477,4.103-26.643,8.228c-12.434,6.279-20.989,19.856-21.287,33.783
			c-0.178,8.299,2.287,16.446,4.67,24.326c8.65,28.602,15.755,33.025,26.206,38.557c9.084,4.81,16.575,10.476,22.425,20.769
			c0.383,0.674,0.147,1.531-0.527,1.915C446.853,190.466,445.998,190.23,445.614,189.555z"/>
	</g>
	<g>
		<path d="M419.256,144.726c-6.573-9.668-8.349-22.559-4.636-33.642c4.485-13.391,20.495-31.438,30.053-42.354
			c1.222-1.396,3.336,0.452,2.114,1.85c-9.001,10.28-25.171,28.462-29.503,41.396c-3.441,10.269-1.795,22.213,4.295,31.171
			C422.621,144.681,420.302,146.264,419.256,144.726z"/>
	</g>
	<g>
		<path d="M574.782,197.067c-68.301-14.695-65.504-19.729-87.495-56.421c-6.944-11.588-16.085-26.449-11.007-47.37
			c1.825-7.526,4.565-10.541,11.105-14.735c5.307-3.404,10.911-6.446,16.658-9.043c0.712-0.322,1.54-0.004,1.858,0.701
			c1.096,2.425-2.791,1.591-16.999,10.706c-6.064,3.889-8.275,6.37-9.893,13.033c-4.623,19.055,3.031,32.486,10.688,45.263
			c13.298,22.186,16.856,28.354,22.714,33.511c12.699,11.18,45.64,17.88,62.963,21.608c0.759,0.163,1.241,0.91,1.078,1.669
			C576.285,196.75,575.536,197.23,574.782,197.067z"/>
	</g>
	<g>
		<path d="M474.709,154.897c-27.587-17.658-27.488-58.402,0.191-75.922c1.565-0.992,3.074,1.378,1.502,2.373
			c-25.947,16.425-26.045,54.625-0.179,71.184C477.794,153.537,476.263,155.897,474.709,154.897z"/>
	</g>
	<g>
		<g>
			<path d="M515.02,85.61c-12.531,20.797-7.406,30.208,0.979,44.343c15.811,26.174,28.77,26.244,55.49,40.261
				c12.088,6.296,18.997,13.428,24.327,15.382c12.419,4.731,23.291,2.776,31.533,12.678c1.46,1.739-0.912,4.089-2.635,2.613
				c-9.435-8.069-19.375-4.086-32.43-8.827c-6.408-2.453-10.062-5.688-17.53-10.031c-13.854-8.034-27.282-10.826-44.846-21.969
				c-6.718-4.79-15.557-11.083-26.074-33.323c-9.594-19.986-2.13-37.116,14.576-52.125c0.772-0.694,1.959-0.631,2.653,0.141
				C522.649,76.529,520.747,76.911,515.02,85.61z"/>
		</g>
	</g>
	<g>
		<path d="M525.632,68.301c-2.48-9.231,3.027-17.647,9.076-24.429c8.04-9.012,11.563-7.017,34.481-2.937
			c1.822,0.325,1.342,3.087-0.493,2.765c-23.031-4.1-25.002-5.68-31.892,2.041c-5.483,6.147-10.632,13.746-8.459,21.831
			C528.824,69.364,526.114,70.094,525.632,68.301z"/>
	</g>
	<g>
		<path d="M553.967,85.104c-4.399-8.915-16.873-10.419-24.483-17.329c-8.204-7.447-9.738-20.909-3.419-30.011
			c1.061-1.524,3.366,0.077,2.308,1.602c-5.45,7.849-4.077,19.907,2.998,26.329c2.889,2.622,6.411,4.333,10.14,6.144
			c17.942,8.717,14.63,14.102,18.206,20.239c0.39,0.67,0.163,1.53-0.508,1.92C556.637,95.499,555.759,88.737,553.967,85.104z"/>
	</g>
	<g>
		<path d="M668.734,202.975c-1.553-11.533-15.227-17.229-22.904-20.47c-9.488-4.005-20.255-8.437-26.513-22.088
			c-2.974-6.485-4.088-13.608-8.357-18.514c-5.708-6.559-25.307-12.657-36.599-41.133c-3.86-9.75-7.079-9.77-12.131-16.018
			c-8.033-9.936-10.957-30.043,8.573-36.744c13.871-4.761,29.408,0.082,40.752,3.618c2.657,0.828,1.407,4.849-1.254,4.022
			c-13.985-4.359-26.507-7.643-38.131-3.655c-16.304,5.596-13.069,22.189-6.664,30.111c4.703,5.814,8.568,6.488,12.773,17.117
			c10.871,27.392,29.324,32.406,35.86,39.918c4.928,5.664,6.14,13.271,9.007,19.524c5.614,12.238,15.32,16.163,24.322,19.962
			c6.048,2.552,23.465,9.118,25.441,23.789c0.155,1.153-0.653,2.213-1.806,2.369C669.932,204.937,668.887,204.112,668.734,202.975z"
			/>
	</g>
	<g>
		<g>
			<path d="M534.641,107.607c5.034,11.754,10.444,15.742,18.443,25.419c4.273,5.152,7.201,10.184,12.329,14.668
				c3.547,3.102,40.165,26.851,68.167,38.055c2.449,0.997,1.174,4.705-1.379,3.977c-20.448-5.895-37.533-14.876-60.036-28.232
				c-15.141-8.959-15.058-10.952-24.919-23.823c-7.219-9.431-19.312-19.966-20.35-41.895c-0.057-1.165,0.842-2.154,2.006-2.211
				C532.129,93.414,530.209,96.97,534.641,107.607z"/>
		</g>
	</g>
	<g>
		<path d="M629.893,117.822c-25.758-8.907-31.847-14.75-41.585-40.094c-2.333-6.072-4.454-13.721-0.108-19.017
			c2.409-2.933,6.539-4.506,11.059-4.214c3.885,0.253,7.526,1.738,10.923,3.237c0.709,0.314,1.03,1.143,0.717,1.852
			c-1.138,2.57-4.619-1.818-11.822-2.287c-3.616-0.233-6.87,0.959-8.704,3.194c-3.407,4.152-1.63,10.533,0.558,16.228
			c9.397,24.454,14.837,29.786,39.881,38.447C632.564,115.774,631.649,118.43,629.893,117.822z"/>
	</g>
	<g>
		<path d="M613.791,91.066c-2.918-5.861-3.344-12.763-1.166-18.938c0.618-1.75,3.267-0.819,2.649,0.934
			c-1.898,5.382-1.512,11.644,1.031,16.751c0.346,0.694,0.063,1.538-0.631,1.883C614.973,92.045,614.134,91.755,613.791,91.066z"/>
	</g>
	<g>
		<path d="M632.421,72.68c-0.252-2.785,1.83-5.544,0.215-6.029c-1.122,0.187-4.064,2.523-6.232,2.394
			c-1.555-0.081-1.834-2.278-0.344-2.743c4.042-1.259,7.859-7.452,16.934-7.065c-0.357-1.519-0.329-2.375-3.803-4.076
			c-5.872-2.875-11.989-5.406-18.184-7.524c-1.753-0.599-0.853-3.258,0.909-2.657c6.305,2.156,12.532,4.732,18.509,7.659
			c4.063,1.989,4.752,3.519,5.257,5.757c0.15,0.661,0.291,1.284,0.574,1.465c1.356,0.869,0.402,2.975-1.142,2.533
			c-3.352-0.955-7.975,0.158-10.743,1.955c3.364,1.849,0.665,6.024,0.847,8.078c0.133,1.484,1.032,3.195,2.494,3.597
			c0.748,0.205,1.188,0.978,0.982,1.726C638.002,80.267,632.88,77.821,632.421,72.68z"/>
	</g>
	<g>
		<path d="M629.337,91.734l-2.835-8.417c-0.592-1.76,2.069-2.654,2.662-0.896l2.835,8.416c0.247,0.735-0.148,1.532-0.882,1.779
			C630.382,92.863,629.586,92.471,629.337,91.734z"/>
	</g>
	<g>
		<path d="M640.159,129.208c-8.012-8.031-1.751-23.605-10.587-28.876c-1.591-0.949-0.162-3.365,1.439-2.412
			c10.457,6.238,4.055,22.207,11.136,29.304c0.301,0.302,0.648,0.481,0.849,0.539c1.691-8.455-0.307-17.407,12.326-14.483
			c1.81,0.419,1.175,3.154-0.633,2.736c-6.969-1.61-7.351,1.02-7.757,3.924c-1.022,7.316-0.746,10.603-3.765,10.652
			C642.079,130.624,640.93,129.979,640.159,129.208z"/>
	</g>
	<g>
		<g>
			<path d="M682.656,86.553c-15.388-3.358-15.451-3.713-17.191-3.369c0.318-0.054,0.068-0.01,0.13-0.02
				c-2.427,0.607-3.73,3.556-3.566,6.057c0.155,4.656,5.726,17.794,7.853,21.936c4.999,9.964,19.25,25.633,12.899,41.139
				c-1.213,2.989-2.932,5.279-5.612,6.921c0.013-0.008-0.229,0.142-0.139,0.084c-5.425,2.552-10.347,0.927-13.205-2.929
				c-0.884-1.2,0.532-3.068,2.158-1.798c3.244,2.495,6.567,1.683,7.964,0.667c0.859-0.599,0.409-0.295,0.409-0.295
				c3.711-3.213,4.788-11.156-0.151-20.97c-5.578-11.01-11.151-14.01-17.658-35.701c-1.672-5.595-1.685-8.102-1.351-10.772
				c0.83-5.882,5.151-9.923,9.634-10.319c3.104-0.26,5.045,0.621,18.885,5.778c3.137,1.204,4.917,1.933,4.917,1.933
				c0.722,0.296,1.066,1.121,0.771,1.842C688.842,88.086,687.799,87.626,682.656,86.553z"/>
		</g>
	</g>
	<g>
		<path d="M715.626,176.688c1.888-2.975,1.144-6.755,0.356-10.757c-0.989-5.017-1.102-6.397-0.631-12.008
			c0.944-11.243,0.174-11.204-16.489-61.156c-0.589-1.767,2.08-2.646,2.664-0.889c16.52,49.525,17.636,50.169,16.623,62.28
			c-0.447,5.334-0.355,6.44,0.587,11.231c0.861,4.367,1.75,8.883-0.741,12.805C717.004,179.76,714.63,178.257,715.626,176.688z"/>
	</g>
	<g>
		<path d="M676.919,180.041c-16.091-4.106-17.375-27.146-23.556-28.365c-1.82-0.359-1.279-3.112,0.543-2.756
			c4.219,0.832,5.968,5.569,7.681,9.506c2.628,6.048,6.911,16.568,16.026,18.893c8.89,2.268,19.821-5.603,21.45-7.261
			c3.012-3.069,7.829-15.262,9.677-21.063c0.562-1.77,3.241-0.918,2.676,0.852c-1.646,5.166-6.679,18.44-10.349,22.179
			c-0.995,1.014-2.153,1.793-3.254,2.504C691.507,178.598,684.222,181.904,676.919,180.041z"/>
	</g>
	<g>
		<g>
			<path d="M635.292,155.956c23.973,15.473,25.139,17.038,30.406,19.789c3.376,1.764,10.322,4.24,10.404,10.537
				c0.043,1.778-2.579,1.955-2.798,0.212c-0.139-1.206-1.225-3.005-3.672-4.312c-3.905-2.051-5.391-1.439-15.26-7.754
				c-10.619-7.038-20.529-13.618-28.63-21.339c-0.564-0.536-0.587-1.429-0.051-1.994
				C626.744,149.991,627.165,150.677,635.292,155.956z"/>
		</g>
	</g>
	<g>
		<path d="M777.335,261.296c-2.038-2.168-5.301-3.041-8.464-3.985c-11.642-3.498-22.522-9.189-33.043-14.691
			c-7.195-3.763-15.35-8.029-21.273-14.58c-11.207-12.401-11.382-27.505-17.039-30.549c-3.378-1.815-13.457-0.809-18.219-7.351
			c-1.092-1.5,1.177-3.156,2.271-1.652c3.945,5.42,13.24,4.357,17.278,6.53c7.284,3.92,6.573,18.725,17.792,31.139
			c5.584,6.179,13.162,10.143,20.49,13.975c10.406,5.442,21.164,11.069,32.551,14.491c3.402,1.014,7.143,2.027,9.702,4.751
			c2.655,2.827,3.359,6.755,5.628,9.153c0.534,0.563,0.509,1.452-0.055,1.986C782.339,272.987,779.878,264.005,777.335,261.296z"/>
	</g>
	<g>
		<path d="M747.322,244.55c-0.782-6.374-4.754-12.271-10.368-15.391c-5.159-2.865-12.237-3.539-19.123-16.724
			c-7.104-13.602-6.752-23.779-19.034-23.667c-7.773,0.105-11.264,4.349-12.301,1.758c-0.288-0.72,0.061-1.538,0.781-1.826
			c11.934-4.786,18.951-2.522,22.843,1.609c6.156,6.524,8.253,25.645,20.662,32.775c2.336,1.343,5.017,2.22,7.536,3.62
			c6.385,3.548,10.903,10.255,11.791,17.504C750.334,246.051,747.546,246.395,747.322,244.55z"/>
	</g>
	<g>
		<path d="M762.976,243.778c-8.218-4.374-14.289-10.305-19.25-17.74c-2.462-3.687-3.135-4.464-6.675-7.489
			c-10.718-9.186-18.735-19.83-24.296-31.625c-0.794-1.683,1.751-2.872,2.54-1.198c5.356,11.359,13.097,21.701,23.58,30.687
			c3.729,3.186,4.587,4.166,7.187,8.066c4.681,7.021,10.409,12.655,18.234,16.82C765.933,242.17,764.616,244.652,762.976,243.778z"
			/>
	</g>
	<g>
		<g>
			<path d="M723.4,105.52c0,0,0.518,2.453,1.423,6.747c6.173,29.562,20.594,63.388,27.85,71.988
				c4.671,5.367,8.071,6.394,16.599,17.282c5.034,6.53,23.908,32.341,25.991,35.729c1.808,2.924,2.228,5.235,2.109,7.455
				c-0.089,1.689-2.709,1.893-2.804-0.157c-0.171-3.667-2.412-5.813-7.046-11.52c-21.118-25.84-22.409-28.165-27.202-33.273
				c-5.08-5.412-9.463-7.924-13.475-13.172c-6.304-8.232-22.311-40.95-26.045-78.855c-0.131-1.347-0.598-3.173,1.088-3.336
				C722.608,104.337,723.255,104.828,723.4,105.52z"/>
		</g>
	</g>
	<g>
		<path d="M829.299,279.183c-0.549-2.074-3.888-2.573-6.625-3.684c-6.907-2.81-9.695-10.758-11.935-17.145
			c-14.441-41.163-43.808-77.64-51.394-121.065c-0.319-1.826,2.446-2.316,2.767-0.483c7.48,42.831,36.766,79.258,51.277,120.619
			c2.161,6.159,4.61,13.14,10.344,15.473c2.872,1.171,7.273,1.764,8.281,5.567C832.489,280.261,829.773,280.977,829.299,279.183z"/>
	</g>
	<g>
		<path d="M848.185,310.569c1.328-2.344,0.641-5.516-0.177-8.563c-6.252-23.288-8.888-28.711-22.896-47.671
			c-16.901-22.881-17.591-26.622-31.115-70.31c-0.547-1.772,2.133-2.606,2.684-0.831c13.452,43.456,14.045,46.936,30.691,69.471
			c14.152,19.157,16.971,24.86,23.35,48.612c0.969,3.61,1.76,7.407-0.091,10.676C849.713,313.568,847.27,312.187,848.185,310.569z"
			/>
	</g>
	<g>
		<path d="M702.539,242.73c-6.731-11.152-15.788-17.68-26.565-22.387c-18.919-8.27-12.374-12.193-26.844-24.484
			c-2.481-2.107-10.404-8.757-7.61-10.455c0.66-0.402,1.526-0.193,1.929,0.471c4.047,6.654,9.702,7.518,17.47,18.868
			c4.946,7.232,6.648,8.861,16.18,13.027c11.312,4.942,20.813,11.861,27.845,23.509c0.4,0.664,0.187,1.527-0.477,1.928
			C703.8,243.609,702.937,243.388,702.539,242.73z"/>
	</g>
	<g>
		<g>
			<path d="M823.212,285.591c2.708,2.992,5.635,6.225,8.654,10.608c6.969,10.015,15.372,37.314,17.566,50.045
				c2.6,15.771,0.543,19.47-7.023,46.326c-2.836,10.111-4.014,13.702-4.755,20.368c0-0.018-0.007,0.104-0.001-0.03
				c-0.678,10.114,1.494,19.329,4.961,29.032c0.53,1.591-1.689,2.608-2.549,1.173c-11.011-18.321-10.184-31.089-6.267-45.517
				c10.202-35.51,11.477-35.923,9.461-50.4c-2.045-14.628-9.864-38.163-10.385-39.654c-2.58-7.644-6.454-12.931-13.07-21.531
				c-0.474-0.614-0.36-1.497,0.254-1.971C821.291,283.087,822.193,284.471,823.212,285.591z"/>
		</g>
	</g>
	<g>
		<path d="M802.605,365.194c-2.776-0.417,0.367-3.455,0.656-23.989c0.263-18.819-3.479-28.346-19.087-40.356
			c-6.399-4.92-13.391-9.268-19.466-14.756c-1.376-1.244,0.504-3.329,1.883-2.084c23.648,21.363,46.615,20.265,37.612,80.005
			C804.088,364.776,803.378,365.311,802.605,365.194z"/>
	</g>
	<g>
		<path d="M770.345,421.712c5.356-23.763-1.824-36.622-1.528-46.094c0.167-5.404,2.505-9.953,6.253-12.167
			c1.302-0.769,2.714-1.234,4.08-1.683c10.949-3.602,6.366-9.541-3.175-31.2c-1.733-3.934-3.903-8.214-7.726-9.199
			c-1.795-0.462-1.101-3.181,0.701-2.72c5.462,1.407,8.15,7.508,9.595,10.786c8.418,19.109,9.253,20.486,9.651,23.895
			c1.207,10.301-8.306,10.532-11.697,12.538c-7.788,4.602-4.076,16.887-3.009,22.214c2.253,11.232,2.112,23.075-0.406,34.247
			C772.677,424.139,769.937,423.524,770.345,421.712z"/>
	</g>
	<g>
		<path d="M791.144,452.276c-2.362-6.008-10.216-8.63-14.19-14.711c-11.684-17.885,18.673-44.917,4.84-68.129
			c-0.949-1.593,1.459-3.033,2.413-1.438c14.532,24.386-15.378,51.991-4.902,68.031c3.645,5.578,11.719,8.268,14.452,15.22
			c0.284,0.722-0.071,1.537-0.793,1.82C792.244,453.354,791.428,452.998,791.144,452.276z"/>
	</g>
	<g>
		<path d="M805.722,442.189c-11.086-20.384-13.166-23.327-13.521-28.629c-0.608-9.017,10.722-33.04,14.981-41.046
			c0.871-1.637,3.352-0.322,2.479,1.319c-4.039,7.59-15.204,31.417-14.658,39.538c0.304,4.528,2.093,7.076,13.187,27.475
			C809.075,442.478,806.611,443.822,805.722,442.189z"/>
	</g>
	<g>
		<path d="M802.57,422.152c2.821-11.747,6.657-23.332,11.401-34.432c0.729-1.708,3.312-0.603,2.582,1.103
			c-4.682,10.956-8.468,22.39-11.253,33.984c-0.26,1.082-0.569,2.98,0.286,3.522c0.655,0.415,0.849,1.283,0.434,1.938
			C804.882,430.062,801.132,428.141,802.57,422.152z"/>
	</g>
	<g>
		<path d="M821.535,436.95c-7.587-8.109-2.456-8.368-3.888-17.603c-0.285-1.84,2.492-2.259,2.775-0.43
			c1.592,10.263-3.501,8.992,3.164,16.114C824.853,436.385,822.805,438.307,821.535,436.95z"/>
	</g>
	<g>
		<path d="M829.82,506.034c-5.224-12.504,14.576-37.906,11.175-55.735c-0.347-1.824,2.411-2.349,2.76-0.526
			c3.549,18.612-15.889,44.304-11.342,55.178C833.126,506.66,830.54,507.752,829.82,506.034z"/>
	</g>
	<g>
		<path d="M829.914,486.228c-2.966-13.442-7.808-27.327-8.974-27.653c-0.728,0.269-1.509-0.1-1.78-0.825
			c-0.768-2.062,3.441-3.661,5.397,1.214c3.722,9.27,6.104,17.578,8.04,26.387C833.107,487.697,830.284,487.911,829.914,486.228z"/>
	</g>
	<g>
		<path d="M786.114,495.169c-6.806-9.726-9.243-22.429-6.518-33.982c0.428-1.81,3.158-1.161,2.734,0.645
			c-2.544,10.786-0.269,22.647,6.086,31.727c0.444,0.635,0.289,1.511-0.346,1.956C787.433,495.96,786.56,495.806,786.114,495.169z"
			/>
	</g>
	<g>
		<path d="M768.019,470.287c-0.382-1.815,2.367-2.395,2.748-0.576c2.453,11.706,8.268,26.172,10.922,27.918
			c0.648,0.426,0.828,1.297,0.401,1.945C778.905,504.414,770.834,483.722,768.019,470.287z"/>
	</g>
</g>
</svg>
