<?xml version="1.0" encoding="utf-8"?>

<!DOCTYPE svg PUBLIC "-//W3C//DTD SVG 1.1//EN" "http://www.w3.org/Graphics/SVG/1.1/DTD/svg11.dtd">
<svg version="1.1" id="Layer_1" xmlns="http://www.w3.org/2000/svg" xmlns:xlink="http://www.w3.org/1999/xlink" x="0px" y="0px"
	 viewBox="0 0 1043.9967 1708.7742" enable-background="new 0 0 1043.9967 1708.7742" xml:space="preserve">
<g>
	<path d="M326.1669,278.6493c-9.6-4.736-18.6576-10.3653-27.468-16.4333c-5.0254-3.4612-6.6338-12.5623-4.3522-16.0925
		c1.9858-3.0725,3.2674-6.655,5.3753-9.4604c3.1151-4.146,0.4936-6.8628-1.0984-9.9499c-0.7487-1.4517-1.9818-1.5789-3.6389-0.5152
		c-2.768,1.7769-5.538,1.1815-7.9395-1.1053c-6.3233-6.0211-11.2029-15.7897-4.4333-23.8956
		c1.874-2.2439,1.6726-4.5991,1.161-7.2561c-1.8405-9.5581,0.6015-14.9419,9.1989-19.4958
		c3.6891-1.9541,6.8578-4.1674,8.9341-7.8453c0.4157-0.7364,1.404-1.8241,1.9269-1.7216c5.4626,1.0696,5.481-3.3067,6.6757-6.484
		c1.3366-3.5548,2.3091-7.2092,5.5631-9.787c1.9818-1.5699,1.8936-4.265,2.1639-6.6672
		c0.9167-8.1442,4.1921-14.6873,12.3202-17.9162c5.3163-2.1119,7.5359-6.5876,7.2484-11.7931
		c-0.659-11.9334,4.4874-19.3176,16.0053-22.2335c5.7207-1.4483,9.7521-7.0969,16.5572-6.178
		c1.9899,0.2687,3.3688-2.4484,4.1523-4.6402c1.0695-2.9917,2.5893-3.1685,3.7907-0.1467c1.7162,4.3167,3.6045,2.4535,4.5884-0.0685
		c1.4821-3.799,3.1713-6.4673,7.8576-5.4003c0.7367,0.1677,1.8862-0.3321,2.4893-0.9006c5.8099-5.4761,13.838-8.5387,20.6-9.2674
		c16.1369-1.7388,30.8709-10.427,47.5064-8.8083c2.6014,0.2531,5.1492,0.2601,7.3125,1.8688
		c1.9168,1.4254,4.0014,1.5255,6.2916,1.4469c3.4393-0.118,6.7973-0.2386,9.9675,2.0903c2.5863,1.9,5.5826,0.3742,8.3463-0.7675
		c11.965-4.9428,16.8992-3.0138,25.4877,6.8794c6.1394,7.072,11.8925,15.1086,21.7172,17.9944
		c3.8348,1.1264,6.0621,3.9853,7.2663,7.6779c3.5709,10.9496,9.5242,19.9024,19.665,26.0937
		c6.2805,3.8344,11.1597,9.3025,14.33,16.2911c2.5543,5.6307,7.0211,10.1439,10.0093,15.6703
		c5.7416,10.6185,10.7257,21.5235,15.1961,32.7082c1.9359,4.8438,1.7253,10.0505,2.9823,14.9851
		c2.5081,9.8451,6.7894,19.5785,7.2892,29.5114c0.6655,13.2233,8.0655,22.8651,13.6052,33.5878
		c3.0881,5.9774,9.1816,9.3637,14.0037,13.7994c7.6585,7.0447,15.7112,13.6489,23.9878,19.9888
		c8.0442,6.1618,16.4554,8.8689,26.2997,4.8065c5.1664-2.1319,9.7947-1.1379,14.5147,2.0211
		c3.2584,2.1809,6.7857,4.2935,10.7994,5.2557c1.3568,0.3253,2.8043,1.231,3.7178,2.2944
		c7.2586,8.4489,17.9119,12.2809,26.1638,19.5637c8.5388,7.5359,20.4776,9.1605,30.8752,13.4823
		c21.5458,8.9557,43.4672,17.194,61.2079,33.0958c14.5623,13.0526,27.5129,27.6652,40.5598,42.2043
		c19.2418,21.4423,32.5842,46.0766,41.6312,73.2867c5.8268,17.5248,8.5661,35.6712,11.7123,53.7503
		c1.8269,10.4976,5.2124,20.6158,7.2269,31.0906c2.4357,12.6652,3.1927,25.5004,4.9764,38.2233
		c1.4522,10.3593,4.0685,20.5192,4.8075,31.0034c0.7618,10.8052,2.1382,21.566,2.9777,32.3671
		c1.9548,25.1526,3.2307,50.3169,3.8263,75.567c0.5548,23.5212,2.7368,47.0502,4.3506,70.5588
		c1.4736,21.4673,2.4562,42.9702,4.2184,64.4111c1.6981,20.6629,4.5057,41.2379,6.0449,61.9096
		c0.779,10.4623-2.9333,20.3112-8.5516,29.1259c-1.9384,3.0414-2.0263,4.8015,0.8945,6.7758
		c1.3684,0.9248,2.4642,2.2946,3.8937,3.0806c8.1125,4.4608,14.2866,9.9977,13.902,20.4073
		c-0.5092,13.7813,4.6532,26.5705,7.5025,39.7664c0.7705,3.5685,1.2359,7.2294-0.3411,10.8611
		c-0.8233,1.8956-0.4733,3.9803,0.4025,5.9169c7.7017,17.0276,10.8097,35.291,13.7499,53.5006
		c2.5871,16.0223,5.6667,32.1206,4.2298,48.4897c-1.3777,15.6956-1.9222,31.4113-4.6713,47.0728
		c-1.8387,10.4755-1.6241,21.5408-3.5689,32.1329c-1.4473,7.8821-2.1323,16.3519-8.2283,22.7062
		c-0.5765,0.601-1.1917,1.825-0.9568,2.4445c3.2196,8.496-1.8638,16.4622-1.4766,24.8784
		c0.3844,8.3511-1.3669,16.8173-0.7343,25.2303c0.8632,11.4775-2.053,22.699-1.9836,34.0188
		c0.0585,9.5671-0.783,19.1995,0.5854,28.7646c0.8055,5.6302-0.5316,11.2352-0.2212,16.9519
		c0.6549,12.0643-0.6695,24.1959,0.5443,36.2891c0.4694,4.6769,0.869,9.1864,0.2412,14.0924
		c-0.9948,7.7745,0.5233,15.8463,0.6751,23.798c0.1689,8.8463-0.3721,17.7178,0.0737,26.5439
		c0.5081,10.0569-1.6004,20.0482,0.6108,30.2394c1.1827,5.4512,2.1044,11.5165,0.6268,17.4073
		c-1.7511,6.9813-0.0168,14.4326-1.6568,21.1964c-2.2332,9.2106,1.3552,16.9957,3.4091,25.2679
		c0.3217,1.2958,0.7375,2.6406-0.3532,3.641c-3.3531,3.076-2.1276,6.3485-1.1216,10.0461
		c2.0789,7.6404,2.2949,15.6368,3.8071,23.4393c1.2827,6.6182,1.4996,13.4845,4.0087,19.9204
		c-1.7491,1.5629-3.6563,0.8751-5.3577,0.8754c-187.3271,0.0361-374.6542-0.0044-561.9811,0.2009
		c-5.7355,0.0063-5.3666-2.2686-4.9321-6.163c0.8542-7.6548,2.348-15.4987,2.5883-22.8837
		c0.3506-10.7766,0.425-21.8417-0.9512-32.8481c-1.6168-12.9302-4.9325-25.7993-4.4559-38.8436
		c0.2664-7.2915,0.0919-14.7467-1.0193-21.5764c-1.5425-9.4805,0.3731-18.8163-1.145-28.2458
		c-0.8286-5.1467,1.5237-10.8392,0.6915-16.6288c-1.8061-12.5651,1.8094-24.941,2.3228-37.4581
		c0.3831-9.3401,0.9695-18.6895,1.98-27.9788c0.5069-4.6603-1.9162-8.4722-2.5754-12.7854
		c-1.4202-9.2936-3.7643-18.5481-6.7789-27.4641c-2.5682-7.5958-6.4977-16.4651-13.4512-19.2386
		c-8.5197-3.3982-11.2041-8.4084-11.8432-16.1266c-0.8925-10.7778-8.0227-18.9703-12.4965-28.0148
		c-6.9366-14.0232-8.7893-28.6029-10.5277-43.5271c-0.1673-1.4358-0.7038-2.8246-0.9592-4.2548
		c-2.4185-13.5403-1.9015-27.1896-1.083-40.7976c0.2241-3.7261,1.4752-7.7085,3.3383-10.9507
		c3.7018-6.4421,6.0207-13.4064,7.6535-20.4348c1.4072-6.0574,4.7658-10.0339,9.3187-13.4877
		c1.3247-1.0049,3.1318-1.5839,2.6942-3.6466c-0.4263-2.0096-2.3407-2.2489-3.9234-2.3199
		c-5.3108-0.2388-9.4536-2.1674-12.4795-6.8055c-1.7914-2.7458-5.5342-3.4312-7.692-6.0944
		c-4.9576-6.1189-3.3619-13.2173-2.8681-19.9656c0.2505-3.4236,0.3018-6.3695-1.1678-9.5535
		c-2.3344-5.0576-2.9044-10.8506-2.5329-16.0876c0.6655-9.38,0.3446-18.7605,0.9915-28.104
		c0.4715-6.8099,4.8245-12.1356,8.3297-17.6578c1.2379-1.9504,2.1955-3.3926,0.1852-5.2234
		c-9.0606-8.2511-11.2258-20.2133-16.2711-30.6027c-1.5435-3.1783-3.7964-5.802-5.3779-8.9114
		c-1.5244-2.9972-2.504-6.5164-1.0769-9.0095c2.3562-4.1158,1.307-7.7975,0.4037-11.6343c-1.1506-4.887-1.0633-9.5248,1.768-13.8129
		c1.139-1.725,0.8697-3.5811,0.7444-5.3594c-0.4474-6.3466,0.4005-12.4617,2.8926-18.3146c0.6119-1.4371,1.3121-3.3951,0.113-4.1129
		c-4.5135-2.7021-3.9955-7.1457-4.312-11.2264c-0.4705-6.0669-3.7341-10.767-7.5256-14.9297
		c-8.8081-9.6706-14.6267-21.3869-22.4154-31.7463c-6.8124-9.0608-12.9655-18.4774-22.2328-25.5853
		c-5.3549-4.1071-8.9214-10.4414-14.1443-15.0028c-0.7824-0.6834-1.153-1.8384-2.1057-3.4292
		c-1.7154,2.7766-1.1725,4.2457-0.7967,5.7809c4.8275,19.7187,15.6377,35.6663,30.4497,49.2673
		c5.9669,5.4789,11.3345,11.611,16.9672,17.4531c0.6447,0.6686,1.2345,1.3865,0.8123,2.4426
		c-0.2692,0.1136-0.6888,0.4348-0.8457,0.3365c-12.069-7.5615-23.7701-15.6488-34.1786-25.4143
		c-4.9361-4.631-9.3325-9.8336-14.2007-14.5422c-2.8352-2.7423-0.9883-6.5611-0.6692-8.5752
		c0.7897-4.9844-2.6023-8.6819-1.8078-13.6403c-2.3404,1.3845-0.9695,3.571-2.1221,4.9162
		c-2.7657-0.4329-2.3158-2.822-2.6453-4.6556c-0.3372-1.8761-0.7593-3.9682-3.0373-3.7543
		c-2.6909,0.2526-1.4635,2.543-1.5901,4.1894c-0.311,4.0438,1.7757,6.8907,4.0898,9.8649c2.182,2.8043,6.6825,6.3082,4.593,9.2739
		c-5.0618,7.1844-1.3484,13.5472,0.6277,20.78c-3.291-1.0257-3.2457-5.021-6.7269-4.6548
		c-0.5263,4.9108,2.2496,9.5563,5.5205,11.1577c8.7606,4.2888,6.9813,12.7463,10.4673,19.2035
		c-2.5417,0.8038-2.4437-0.7239-3.1002-1.4261c-2.6207-2.8027-4.3329-7.6129-9.7067-2.6663
		c-2.0859,1.92-6.3072,1.5201-10.0397,2.2748c4.8975,5.4517-0.0078,11.8474,3.1735,18.3923c-2.8763-1.116-4.1063-4.2623-6.47-1.1168
		c-1.3191,1.7554-2.8661,0.5451-3.3981-1.5697c-0.2542-1.0106-0.7996-2.2555-2.2078-1.912
		c-1.0482,0.2556-0.9981,1.4131-1.152,2.2995c-1.2854,7.4033-5.0359,15.0667,2.1255,21.6179
		c2.7907,2.5529-0.4788,5.9283,1.4549,8.8264c1.6886,2.5307,1.7833,5.9831,3.9776,8.4157c0.6593,0.731,0.8418,1.8251,0.0948,2.4993
		c-1.1919,1.076-1.9001-0.0869-2.6277-0.8849c-0.619-0.679-1.2888-1.3116-1.9106-1.9882c-0.8417-0.916-1.8501-1.3458-2.9288-0.5971
		c-1.1613,0.8062-0.6192,1.8913-0.2952,2.9847c1.2761,4.306,4.3105,8.0941,3.9297,13.359
		c-10.2808-5.1699-8.6421-18.8732-18.6308-24.0739c-0.837,7.853-7.068,14.7939-4.1827,23.6364
		c0.4145,1.2703-0.1576,3.1271-1.8898,3.5406c-1.793,0.4279-1.8188-1.1613-2.3076-2.3758
		c-0.7334-1.8218-1.8362-3.4949-3.0686-5.7576c-2.8486,3.7897-2.6903,7.1923-1.5419,11.059c0.4405,1.4832,2.1398,4.3596-0.78,5.217
		c-2.418,0.7102-2.5565-2.1246-3.356-3.6105c-3.8724-7.1972-3.6475-15.24-4.2801-23.0168
		c-0.9734-11.9675,0.8847-23.9195,0.9374-35.8953c0.0049-1.1083,0.0494-2.2173,0.0231-3.3248
		c-0.0515-2.1648,0.3147-5.606-1.7496-5.785c-3.0899-0.2679-2.5232,3.2392-3.047,5.5002
		c-0.9112,3.9335-2.1127,7.8007-3.2307,11.6847c-0.3158,1.097-0.8676,2.1923-2.2496,1.9035
		c-1.5953-0.3333-0.9351-1.6904-0.95-2.6963c-0.0473-3.2002,0.9486-6.5212-1.0205-9.9153
		c-4.5862,6.8555-8.3861,13.6829-12.2492,20.4928c-3.9253,6.9197-0.344,12.3759,2.8602,17.8298
		c2.0629,3.5114,2.8273,7.1346,2.8391,11.0173c0.0055,1.806-0.1359,3.9243-2.4842,4.354c-1.8567,0.3395-3.2852-0.8661-3.9963-2.403
		c-1.3661-2.9526-3.789-4.8182-6.6842-7.861c-0.3624,3.6438-1.1354,6.3484-0.7914,8.9026c1.058,7.8564-3.3584,13.176-7.9058,18.5135
		c-0.9682,1.1364-2.1598,2.321-3.7834,1.3564c-1.4512-0.8623-1.4689-2.4305-1.2144-3.959c0.1214-0.7286,0.1565-1.4797,0.3541-2.1863
		c3.3507-11.9847,0.659-22.2167-8.7698-30.5352c-0.5184-0.4574-1.1541-1.1363-1.1791-1.7352
		c-0.0911-2.1883-0.4791-4.4247-2.9641-4.5734c-2.3712-0.142-3.0305,2.4417-4.0654,4.0731
		c-8.3541,13.1705-9.4318,26.742-1.9583,40.6882c2.8404,5.3004,4.8131,11.1918,10.4376,14.5724
		c1.1927,0.7169,1.9298,2.2709,0.7476,3.8579c-1.2874,1.7281-2.6511,2.886-5.102,2.158c-4.8681-1.4459-8.8764-4.7365-11.1709-8.6033
		c-4.1143-6.9337-9.485-13.0083-13.2708-20.3672c-4.8356,4.0007-4.376,9.8143-5.0113,15.0381
		c-1.2597,10.3586-3.7422,20.2053-9.6358,28.9852c-0.9089,1.3541-1.5639,3.5659-3.5008,2.7423
		c-2.2983-0.9773-0.4371-3.0173,0.0795-4.1772c2.8675-6.4381,4.255-13.2341,5.422-20.1066
		c0.3666-2.1592,1.3572-5.0153-0.7165-6.1354c-2.0872-1.1274-4.1453,1.2877-5.4827,2.8257
		c-2.8754,3.3069-5.2289,7.0612-7.9393,10.5201c-1.6981,2.1671-3.4318,4.6031-6.3106,5.1287
		c-2.0437,0.3732-5.7679,3.6089-5.4789-2.2687c0.0678-1.3779-1.2642-0.9398-2.0688-1.0476
		c-1.3869-0.1858-3.389,0.2937-3.4742-1.7162c-0.0672-1.5859,1.7778-2.116,3.0203-2.9009
		c4.2052-2.6561,8.3497-5.4016,11.7932-9.0588c1.8671-1.983,3.3068-4.0355,1.5433-6.8241c0.0055,0.0012,0.2479,0.225,0.2479,0.225
		l-0.1531-0.2817c-5.2033,5.3226-11.1962,8.7601-19.0732,8.1852c-0.0133-2.793,2.2484-3.3055,3.7433-4.4662
		c2.0324-1.5779,4.2339-2.9712,6.1011-4.7228c5.585-5.2395,5.4522-5.2159,0.134-10.9813c-2.3586-2.5568-4.3206-5.482-6.4285-8.2658
		c-0.7619-1.0063-1.2464-2.4083-2.9607-1.7002c-5.804,2.3974-4.5981-2.6239-3.9222-4.5607
		c1.2967-3.7158-0.1579-6.4301-1.6352-9.3448c-6.1961-12.2249-9.5422-25.253-8.4477-38.8563
		c0.9859-12.2534,4.7938-24.0353,9.7044-35.3393c2.0896-4.8104,3.7856-9.6649,3.3704-14.9225
		c-0.4121-5.2183,3.13-9.285,3.5191-14.3505c0.8177-10.6449-0.8112-21.3091,0.8154-31.9546
		c0.7742-5.0664,1.1836-10.2018,2.1539-15.2565c0.2294-1.1949,0.9163-2.8542-0.4782-3.4935
		c-1.5201-0.6968-2.0249,0.946-2.7478,2.023c-3.7927,5.65-4.7743,5.8536-9.2948,1.3936c-1.071-1.0567-1.2954-1.7144-2.8799-0.6226
		c-4.5331,3.1238-8.0762,1.3532-7.6122-4.2326c0.7147-8.6021,2.8244-16.988,6.3213-24.964
		c0.8115-1.8508,3.0846-3.6733,0.9534-5.8696c-2.3546-2.4268-4.5573-0.3924-6.3772,0.8906
		c-6.3787,4.4966-11.6,10.0582-14.5019,17.4617c-0.5811,1.4825-1.5044,3.0413-2.8095,3.2039
		c-7.8468,0.9783-7.8057,7.5807-9.322,12.9019c-1.9767,6.9367-5.7153,13.0953-8.2908,19.7601
		c-0.3602,0.932-1.2549,2.6576-2.8611,1.7938c-1.0848-0.5835-0.8212-1.9855-0.4608-3.0293
		c6.0791-17.6023,7.1647-36.7893,16.9938-53.2246c1.5122-2.5286,2.8868-5.1477,4.8116-7.3505
		c5.0551-5.7851,6.7713-13.963,13.9759-18.378c2.2456-1.3762,6.6406-5.9056-0.9648-7.5426
		c-1.4129-0.3041-0.4579-1.4998-0.1042-2.183c1.0988-2.1229,2.1563-4.2917,3.5011-6.2572c2.3969-3.5032,3.063-6.1176-2.0933-7.7505
		c-3.679-1.1649-3.4288-3.1368-0.3494-5.3124c6.4015-4.5227,7.4763-13.5054,2.1371-20.2933
		c-2.1897,7.3419-7.213,3.7338-11.1882,2.8135c-1.7651-0.4087-0.5449-3.1085-0.1355-4.653
		c0.5811-2.1921,0.2889-2.9395-1.8644-4.5951c-3.4362-2.642-7.9064-5.976-9.3769-9.1655
		c-4.8383-10.4953-6.5561-22.017-3.8854-33.6929c0.7746-3.3865,2.6271-6.7742,2.4443-10.0759
		c-0.3017-5.4493-1.596-10.9033-3.0963-16.1778c-0.3136-1.1026-0.7233-1.9224-0.0221-2.6095
		c6.6794-6.5456,6.2651-15.4464,7.6275-23.6248c1.3854-8.3161,4.1894-16.2051,6.5056-24.2153
		c1.2669-4.3815,2.3777-8.8376,3.7997-13.1803c3.2703-9.9877,8.0655-19.2744,13.213-28.4096
		c0.9222-1.6368,3.7138-4.0822-0.381-5.715c-0.7679-0.3062-1.0974-1.1935-0.6696-1.8353c3.224-4.8361,0.3841-10.8293,3.1353-15.8445
		c0.8935-1.6287,0.3201-3.8408-0.0285-5.9813c-0.6569-4.0337,0.0341-8.4312-0.3322-12.7184
		c-0.1187-1.3892,1.9156-1.9172,3.5682-1.7488c1.9247,0.1962,3.8822,0.2316,3.3254-3.2635
		c-1.6841,0.4235-3.0236,2.8385-4.9736,1.3164c-1.7679-1.3799-1.1315-3.3245-1.3051-5.1165
		c-0.5816-6.0054,2.217-11.6442,2.526-17.1618c0.4387-7.8339,2.5031-15.374,2.746-23.1545
		c0.0632-2.0247-0.3481-4.0729,2.5811-5.3195c2.0482-0.8716,1.4944-3.9509,0.8954-6.0701
		c-0.8709-3.0809-2.6007-0.3589-3.9217-0.3707c-2.3716-0.0212-4.8714,0.1276-3.4739-3.4737
		c0.7107-1.8315,0.7273-3.3219-0.1648-5.2108c-1.0941-2.3168-0.2872-4.847,1.5066-6.6118
		c7.6814-7.5574,8.041-17.8125,10.2012-27.3766c0.7648-3.386,0.9362-6.9132,1.2773-10.386c0.4857-4.9458,5.6412-7.011,6.869-11.639
		c3.604-13.5855,12.7445-23.9352,21.7628-33.9541c5.4587-6.0644,11.7493-11.8901,19.5738-15.3475
		c1.1447-0.5058,2.5647-1.0043,3.2006-1.9485c5.1965-7.7163,13.9386-11.8468,19.3369-19.3708
		c2.8752-4.0074,6.4318-7.4029,10.5751-10.2229c2.4086-1.6394,4.9625-4.1196,4.7799-6.9951
		c-0.3167-4.9856,3.2122-6.4164,6.2714-6.5536c9.9835-0.4478,17.3655-5.6046,24.1957-11.9814
		c1.5793-1.4744,2.0352-1.903,3.5411,0.0973c1.1545,1.5335,3.3282,2.3239,5.4735,1.0419c1.3573-0.8111,3.1708-1.1442,4.2456-0.365
		c5.0246,3.6429,7.8768,0.3823,10.8026-3.0148c1.8253-2.1193,3.6541-3.1462,5.7707-0.2429c0.8515,1.168,2.2538,1.2792,3.5042,0.6957
		c0.8928-0.4166,1.1042-1.4133,1.071-2.376c-0.059-1.7148-1.0465-2.9297-2.6276-3.0554c-4.6697-0.3712-7.745-5.4135-13.0729-3.9975
		c4.5639-2.5426,9.5493-2.4398,13.6554-1.0941c3.944,1.2927,8.1289,1.8686,11.9955,3.6701
		c3.6155,1.6845,6.6112,2.9902,6.0761,7.7809c-0.3591,3.2157,2.6315,3.1743,4.5828,3.5338
		c6.2554,1.1525,12.3805,2.714,18.5066,4.4393c9.2147,2.595,18.2107,5.3008,26.0022,11.3008
		c2.809,2.1632,3.1819,7.0561,7.577,7.0055c3.16-0.0365,5.2433,1.8755,7.8263,2.9484c6.0017,2.4931,7.4462,8.8596,11.5476,13.0029
		c5.9587,6.0196,11.7994,11.4987,20.0383,14.0155c1.833,0.5599,3.6243,0.5435,5.4597,0.5958
		c1.8904,0.0538,3.3423-0.7473,3.7613-2.5768c0.3517-1.5362,0.412-2.955-0.9989-4.499
		c-4.9203-5.3844-9.5321-11.8277-14.8183-15.9554c-9.0003-7.0277-11.3652-15.5872-12.5405-25.4757
		c-0.5869-4.9373-2.9915-8.654-6.8663-11.3251c-5.041-3.475-4.1354-8.858-4.9193-13.7168
		c-0.0259-0.1606,1.2248-0.5271,1.8629-0.8054c0.0084,0.0886,0.0343,0.185,0.0602,0.2813
		c-0.0646-0.0594-0.1292-0.1188-0.1938-0.1783C325.9704,278.6093,326.0687,278.6293,326.1669,278.6493z M568.4982,810.1503
		c0.7185,2.8322,1.3788,5.681,2.1779,8.4902c0.4606,1.6196,1.2272,3.3007,3.1678,3.3504c1.5106,0.0389,2.765-0.9789,3.48-2.3562
		c6.303-12.1392,15.2381-22.493,22.7161-33.8161c3.5975-5.4472,7.4208-11.8646,5.9354-18.9911
		c-4.4737-21.4647-6.5637-43.3992-13.0292-64.478c-3.5247-11.4916-4.5032-23.7312-10.4993-34.522
		c-1.379-2.4815-1.4929-5.5899-1.9144-8.5182c-2.2165-15.3963-3.2474-31.0073-7.6364-46.0327
		c-5.1714-17.7042-3.3599-36.4988-8.5922-54.2147c-0.8523-2.886-0.7028-6.379-0.0035-9.3531
		c2.004-8.5216,0.5051-16.86-0.6517-25.2128c-4.1243-29.7787-4.985-59.4703,2.8948-88.7988
		c1.2867-4.789-0.4461-5.7063-4.2524-6.5265c-6.2734-1.3516-12.9359-1.0116-18.8431-3.7576
		c-2.9815-1.386-4.7059-0.4302-6.8403,1.3857c-8.2465,7.016-16.5507,13.9668-24.9358,20.8163
		c-13.4999,11.0275-28.7198,18.2731-46.1379,20.5287c-9.1053,1.1791-17.3426-2.1552-25.638-5.061
		c-2.2919-0.8028-3.9832-1.544-5.0346,1.7357c-4.8148,15.0184-14.6841,26.0491-27.5492,34.8027
		c-9.6751,6.5831-17.4327,14.972-19.4614,26.9255c-1.4723,8.6755-2.277,17.4856-2.5114,26.3539
		c-0.2708,10.2509,1.0194,20.6182-2.1797,30.7225c-2.9676,9.3733-2.0193,11.4018,6.757,15.2874
		c10.4325,4.6188,19.786,10.4116,25.7003,20.6694c1.8274,3.1694,4.6793,5.3878,7.7772,7.5402
		c8.3113,5.7747,16.2379,12.0683,22.3272,20.3773c5.5655,7.5942,12.0672,14.4092,19.4647,20.1942
		c10.9795,8.5861,22.1784,16.9026,33.4808,25.0613c8.1071,5.8521,14.0048,13.8144,21.013,20.7009
		c10.1902,10.0133,21.3024,19.0813,31.7488,28.8442c5.3309,4.9822,10.7017,10.0656,12.6649,17.6558
		C568.3533,776.4222,569.6871,793.1346,568.4982,810.1503z M102.9565,1006.3499c0-2.0359,0.1632-3.5119-0.0406-4.9355
		c-0.2643-1.8461,1.1863-5.0529-1.1338-5.235c-2.5742-0.2022-3.1223,3.0402-3.408,5.3997c-0.2232,1.844,0.8324,3.5667,1.0675,5.2271
		c0.516,3.6452,4.8404,3.806,5.4545,7.0804c0.4655,2.4822-0.8054,6.7169,2.4173,6.8495c3.0521,0.1257,2.6899-4.3545,3.4353-6.799
		c2.3328-7.6502,0.9695-15.1757-1.2703-23.8719c-1.8981,4.0406-2.9934,6.463-0.6589,9.4571
		c1.5114,1.9386,0.9591,4.4679-2.2357,4.5057C104.835,1004.0486,104.8083,1005.6964,102.9565,1006.3499z M93.0456,928.6774
		c-10.7961,14.9466-16.9043,42.872-11.2804,52.531c0.022-15.8098,4.4406-30.032,11.2162-43.6358
		C94.3257,934.8737,95.0546,932.0727,93.0456,928.6774z M285.998,214.8285c1.3444,1.9557,0.1652,7.7897,5.749,3.3371
		c1.7101-1.3636,2.4657,0.1444,3.1385,1.5836c0.6922,1.4808,1.5938,3.3669,3.5849,1.9028c1.3399-0.9852,1.6563-2.8086,0.6589-4.3983
		c-1.1303-1.8014-1.7038-3.7282-2.3597-5.7261c-0.7817-2.3809-3.1057-5.3987-5.9604-5.3507
		c-2.7295,0.0459-3.5989,3.1679-4.1617,5.7249C286.452,212.7907,286.2534,213.6787,285.998,214.8285z M258.8629,852.1829
		c-0.529,0.1264-1.058,0.2528-1.5869,0.3792c0.5081,3.3593,0.3966,6.9815,1.6824,10.0104
		c1.5752,3.7106-0.4662,7.2697,0.6193,10.7299c0.3199,1.0195,0.0967,2.9873,1.9319,2.8082
		c1.8997-0.1852,1.8863-1.5954,1.6547-3.2676c-0.3751-2.709-0.4353-5.4705-0.4957-8.2126
		C262.5683,860.0702,261.9207,855.7276,258.8629,852.1829z M57.1263,681.9475c3.8265-2.7067,7.6879-18.1438,5.9902-22.9442
		C58.2522,665.9424,58.5877,673.9244,57.1263,681.9475z M289.1112,181.4782c-0.3625,0.2152-0.6989,0.3733-0.9882,0.5932
		c-1.9699,1.4976-2.9807,10.7587-1.3335,12.537c0.338,0.3649,0.9174,0.7227,1.376,0.711c0.7898-0.02,1.4855-0.6555,1.3264-1.4286
		c-0.7658-3.7221,0.0989-7.224,1.0805-10.7645C290.755,182.468,290.5023,181.1769,289.1112,181.4782z M97.5315,994.0031
		c2.2805-1.3713,3.763-2.6311,2.7801-5.0679c-0.2597-0.6437-0.8949-1.4528-1.6292-0.951
		C96.6623,989.3649,97.0749,991.4162,97.5315,994.0031z M55.3085,689.5721c1.4335-2.58,1.5542-4.3485,0.3768-6.7883
		C54.1217,685.0765,53.5376,686.8045,55.3085,689.5721z M350.5729,105.4187c0.3313-0.2678,0.8017-0.5342,1.1139-0.9266
		c0.4949-0.622,0.0091-1.0379-0.5266-1.0069c-0.4415,0.0256-0.9861,0.3766-1.2555,0.7493
		C349.5436,104.7339,349.7886,105.2101,350.5729,105.4187z M85.6122,521.2166c1.0522-1.0487,0.7953-1.9493,0.6147-2.8021
		c-0.034-0.1607-0.6576-0.3875-0.7132-0.3241C84.6898,519.0294,84.8561,520.0067,85.6122,521.2166z M295.2186,180.4982
		c-0.3241-0.0821-0.5032-0.1275-0.6824-0.1729c0.0375,0.0988,0.0664,0.2761,0.1143,0.2814
		C294.7812,180.6211,294.9199,180.563,295.2186,180.4982z"/>
</g>
</svg>
